<svg width="154" height="375" viewBox="0 0 154 375" fill="none" xmlns="http://www.w3.org/2000/svg">
<path fill-rule="evenodd" clip-rule="evenodd" d="M125.3 203.571L124.818 202.986C119.271 197.259 110.156 197.13 104.461 202.699C98.7653 208.267 98.649 217.423 104.194 223.149L118.327 237.737L110.807 258.752C108.117 266.264 112.004 274.552 119.487 277.261C126.97 279.969 135.215 276.074 137.903 268.56C144.966 246.164 140.219 221.686 125.3 203.571Z" fill="#F2BCA7"/>
<path fill-rule="evenodd" clip-rule="evenodd" d="M80.926 181.155C54.3101 183.157 34.3691 206.455 36.3885 233.197L37.1515 247.327C39.174 274.07 62.3837 294.122 89.0028 292.118C115.619 290.116 135.559 266.818 133.539 240.075L132.774 225.948C130.755 199.203 107.541 179.151 80.926 181.155Z" fill="#FCD9C3"/>
<mask id="mask0_0_10643" style="mask-type:luminance" maskUnits="userSpaceOnUse" x="7" y="-110" width="115" height="339">
<path fill-rule="evenodd" clip-rule="evenodd" d="M121.653 219.965L41.9018 228.348L7.31085 -100.764L87.0623 -109.146L121.653 219.965Z" fill="white"/>
</mask>
<g mask="url(#mask0_0_10643)">
<path fill-rule="evenodd" clip-rule="evenodd" d="M103.733 192.763L90.086 -80.3778C88.4162 -96.2647 59.3469 -106.233 43.5328 -104.571C27.7186 -102.909 8.66472 -87.8825 10.3345 -71.9956L46.4668 198.781C48.1368 214.671 62.3096 226.203 78.1238 224.54C93.9379 222.878 105.403 208.652 103.733 192.763Z" fill="#FCD9C3"/>
</g>
<mask id="mask1_0_10643" style="mask-type:luminance" maskUnits="userSpaceOnUse" x="13" y="-111" width="122" height="360">
<path fill-rule="evenodd" clip-rule="evenodd" d="M134.495 239.975L50.0369 248.852L13.2255 -101.386L97.6837 -110.262L134.495 239.975Z" fill="white"/>
</mask>
<g mask="url(#mask1_0_10643)">
<path fill-rule="evenodd" clip-rule="evenodd" d="M99.8791 189.762C95.8291 188.02 93.685 183.482 93.4717 179.063L80.3779 -70.6843C78.7081 -86.5715 42.0502 -95.7396 26.2361 -94.0775C21.9021 -93.6219 17.914 -92.1981 14.4138 -90.0796C18.9268 -97.4914 34.2635 -103.597 43.5326 -104.571C59.3467 -106.233 88.416 -96.2648 90.0858 -80.3779L102.646 179.782C102.785 182.665 104.45 185.241 106.995 186.584C121.257 194.112 134.682 208.106 133.539 240.075C133.539 240.075 134.572 204.683 99.8791 189.762Z" fill="#F2BCA7"/>
</g>
<path fill-rule="evenodd" clip-rule="evenodd" d="M122.65 254.074C121.255 247.935 115.177 244.081 109.059 245.46C102.933 246.844 99.086 252.956 100.468 259.111L109.437 299.049C109.439 299.057 121.199 350.821 121.201 350.829C122.596 356.97 128.674 360.824 134.792 359.445C140.919 358.061 144.764 351.95 143.383 345.794L122.657 254.103C122.655 254.095 122.652 254.084 122.65 254.074Z" fill="#FCD9C3"/>
<path fill-rule="evenodd" clip-rule="evenodd" d="M139.141 346.763C139.141 346.763 121.255 247.935 122.65 254.074C122.652 254.084 122.655 254.095 122.657 254.103L143.383 345.794C144.765 351.949 140.919 358.061 134.792 359.445C134.078 359.606 133.364 359.689 132.658 359.712C137.526 357.553 140.357 352.178 139.141 346.763Z" fill="#F2BCA7"/>
<path fill-rule="evenodd" clip-rule="evenodd" d="M84.9226 294.855L84.9194 294.825L80.5688 254.435C79.892 248.161 74.2824 243.621 68.0379 244.293C61.8036 244.966 57.2944 250.581 57.9523 256.84L57.9556 256.872L62.306 297.26C62.9828 303.534 68.5927 308.076 74.8366 307.402C81.0713 306.729 85.5806 301.116 84.9226 294.855Z" fill="#FCD9C3"/>
<path fill-rule="evenodd" clip-rule="evenodd" d="M78.2292 295.51C78.2309 295.5 78.2303 295.521 78.2292 295.51C78.2292 295.51 80.1283 272.397 80.0541 263.742L81.5738 262.993L84.9194 294.825L84.9226 294.855C85.5806 301.116 81.0731 306.746 74.8366 307.402C71.6871 307.733 70.9487 307.01 70.2547 306.955C75.4185 305.429 77.3281 301.166 78.2292 295.51Z" fill="#F2BCA7"/>
<path fill-rule="evenodd" clip-rule="evenodd" d="M102.792 263.134C102.611 256.842 97.3941 251.874 91.1244 252.033C84.8462 252.193 79.8896 257.436 80.0542 263.742L81.1256 304.663C81.1257 304.671 82.648 357.734 82.6481 357.743C82.8286 364.038 88.0459 369.005 94.3147 368.847C100.594 368.686 105.55 363.443 105.385 357.137L102.793 263.164C102.793 263.156 102.792 263.145 102.792 263.134Z" fill="#FCD9C3"/>
<path fill-rule="evenodd" clip-rule="evenodd" d="M64.6958 291.005L64.6926 290.975L60.3422 250.587C59.6655 244.313 54.0556 239.772 47.8114 240.445C41.577 241.118 37.0676 246.731 37.7257 252.992L37.7288 253.022L42.0794 293.412C42.7562 299.687 48.3659 304.226 54.61 303.554C60.8447 302.882 65.3538 297.266 64.6958 291.005Z" fill="#FCD9C3"/>
<path fill-rule="evenodd" clip-rule="evenodd" d="M60.5743 291.438L60.5712 291.408C60.5712 291.408 60.8526 255.608 61.5291 261.882L64.6926 290.975L64.6958 291.005C65.3538 297.266 60.8444 302.882 54.61 303.554C53.8933 303.632 53.1866 303.632 52.4922 303.576C57.6562 302.05 61.1594 297.005 60.5743 291.438Z" fill="#F2BCA7"/>
<path fill-rule="evenodd" clip-rule="evenodd" d="M101.036 357.258C101.036 357.258 103.496 288.665 103.497 288.674L105.385 357.137C105.55 363.443 100.594 368.686 94.3147 368.846C93.5832 368.865 92.8665 368.807 92.1697 368.691C97.3633 367.525 101.181 362.806 101.036 357.258Z" fill="#F2BCA7"/>
<path fill-rule="evenodd" clip-rule="evenodd" d="M127.741 358.795L124.548 346.285C124.191 344.915 124.229 343.472 124.658 342.124C125.944 338.084 130.248 336.035 134.071 337.323C134.773 337.559 135.423 337.927 136.023 338.363C137.841 339.684 139.105 341.635 139.571 343.839L142.089 354.21L141.671 354.99C138.971 360.03 132.617 361.765 127.741 358.795Z" fill="#CE4EAA"/>
<path fill-rule="evenodd" clip-rule="evenodd" d="M87.3104 366.361L86.932 353.455C86.8836 352.04 87.237 350.641 87.9508 349.421C90.0899 345.765 94.7381 344.718 98.1858 346.818C98.8186 347.203 99.3732 347.706 99.8632 348.263C101.347 349.953 102.154 352.136 102.127 354.388L102.313 365.059L101.735 365.727C97.9973 370.047 91.4172 370.336 87.3104 366.361Z" fill="#CE4EAA"/>
<path d="M101.157 169.702C129.159 151.535 17.9443 176.627 32.313 191.964C34.4492 194.245 43.5334 193.012 46.7092 191.89" stroke="#FFB600" stroke-width="1.701"/>
<path d="M41.8002 174.849C6.92088 179.194 109.819 126.434 110.591 147.267C110.706 150.364 102.919 155.29 99.6746 156.49" stroke="#FFB600" stroke-width="1.701"/>
</svg>
