<svg width="155" height="368" viewBox="0 0 155 368" fill="none" xmlns="http://www.w3.org/2000/svg">
<mask id="mask0_0_10761" style="mask-type:luminance" maskUnits="userSpaceOnUse" x="99" y="188" width="47" height="85">
<path fill-rule="evenodd" clip-rule="evenodd" d="M145.546 268.662L107.772 272.633L99.3462 192.467L137.121 188.497L145.546 268.662Z" fill="white"/>
</mask>
<g mask="url(#mask0_0_10761)">
<path fill-rule="evenodd" clip-rule="evenodd" d="M126.22 195.85L125.734 195.263C120.137 189.515 110.935 189.39 105.182 194.986C99.4296 200.581 99.3067 209.776 104.902 215.523L119.162 230.165L111.558 251.274C108.838 258.819 112.757 267.141 120.31 269.856C127.863 272.572 136.19 268.656 138.907 261.108L138.907 261.108C146.051 238.613 141.272 214.034 126.22 195.85Z" fill="#F2BCA7"/>
</g>
<path fill-rule="evenodd" clip-rule="evenodd" d="M81.4356 173.364C54.5642 175.389 34.4195 198.798 36.4428 225.653L37.2058 239.842C39.2322 266.697 62.6524 286.822 89.527 284.794C116.398 282.769 136.542 259.36 134.519 232.505L133.754 218.318C131.73 191.461 108.306 171.336 81.4356 173.364Z" fill="#FCD9C3"/>
<mask id="mask1_0_10761" style="mask-type:luminance" maskUnits="userSpaceOnUse" x="7" y="-119" width="116" height="340">
<path fill-rule="evenodd" clip-rule="evenodd" d="M122.53 212.316L42.0119 220.779L7.27593 -109.712L87.7943 -118.175L122.53 212.316Z" fill="white"/>
</mask>
<g mask="url(#mask1_0_10761)">
<path fill-rule="evenodd" clip-rule="evenodd" d="M104.454 185.008L90.8306 -89.286C89.1538 -105.24 59.8124 -115.234 43.8462 -113.556C27.8799 -111.878 8.63547 -96.7767 10.3123 -80.8232L46.6372 191.085C48.3142 207.041 62.616 218.614 78.5822 216.936C94.5484 215.257 106.131 200.964 104.454 185.008Z" fill="#FCD9C3"/>
</g>
<mask id="mask2_0_10761" style="mask-type:luminance" maskUnits="userSpaceOnUse" x="13" y="-120" width="123" height="362">
<path fill-rule="evenodd" clip-rule="evenodd" d="M135.483 232.404L50.2131 241.366L13.2474 -110.34L98.5177 -119.302L135.483 232.404Z" fill="white"/>
</mask>
<g mask="url(#mask2_0_10761)">
<path fill-rule="evenodd" clip-rule="evenodd" d="M100.565 181.997C96.4772 180.25 94.3151 175.694 94.1023 171.256L81.0242 -79.5458C79.3474 -95.4996 42.3443 -104.686 26.3781 -103.008C22.0025 -102.548 17.9755 -101.116 14.4407 -98.9864C19.001 -106.432 34.4876 -112.572 43.8458 -113.556C59.812 -115.234 89.1535 -105.24 90.8303 -89.2861L103.364 171.973C103.503 174.868 105.182 177.454 107.75 178.801C122.145 186.354 135.69 200.399 134.519 232.505C134.519 232.505 135.581 196.962 100.565 181.997Z" fill="#F2BCA7"/>
</g>
<path fill-rule="evenodd" clip-rule="evenodd" d="M123.517 246.569C122.112 240.405 115.978 236.538 109.8 237.927C103.615 239.32 99.7282 245.46 101.12 251.64L110.152 291.743C110.154 291.752 121.998 343.729 121.999 343.737C123.405 349.903 129.538 353.771 135.715 352.382C141.902 350.989 145.787 344.849 144.396 338.668L123.524 246.599C123.522 246.591 123.519 246.58 123.517 246.569Z" fill="#FCD9C3"/>
<path fill-rule="evenodd" clip-rule="evenodd" d="M140.113 339.643C140.113 339.643 122.112 240.405 123.517 246.569C123.519 246.58 123.521 246.591 123.523 246.599L144.396 338.668C145.787 344.849 141.902 350.989 135.715 352.382C134.994 352.544 134.274 352.628 133.561 352.651C138.476 350.48 141.337 345.081 140.113 339.643Z" fill="#F2BCA7"/>
<path fill-rule="evenodd" clip-rule="evenodd" d="M85.4058 287.545L85.4027 287.515L81.0333 246.955C80.3536 240.655 74.6928 236.1 68.3884 236.778C62.094 237.457 57.5387 243.099 58.1992 249.384L58.2026 249.416L62.5718 289.973C63.2512 296.274 68.9125 300.831 75.2164 300.151C81.5111 299.472 86.0667 293.832 85.4058 287.545Z" fill="#FCD9C3"/>
<path fill-rule="evenodd" clip-rule="evenodd" d="M78.6481 288.207C78.6499 288.196 78.6492 288.218 78.6481 288.207C78.6481 288.207 80.5787 264.994 80.5084 256.303L82.043 255.55L85.4027 287.515L85.4059 287.545C86.0667 293.832 81.5129 299.489 75.2167 300.151C72.0369 300.485 71.2916 299.76 70.591 299.705C75.8049 298.17 77.7352 293.888 78.6481 288.207Z" fill="#F2BCA7"/>
<path fill-rule="evenodd" clip-rule="evenodd" d="M103.464 255.68C103.285 249.36 98.0206 244.375 91.6909 244.537C85.3523 244.702 80.3457 249.97 80.5084 256.303L81.5669 297.397C81.5669 297.406 83.0736 350.693 83.074 350.702C83.2527 357.023 88.5171 362.009 94.8459 361.846C101.185 361.681 106.191 356.413 106.028 350.08L103.465 255.71C103.464 255.701 103.464 255.691 103.464 255.68Z" fill="#FCD9C3"/>
<path fill-rule="evenodd" clip-rule="evenodd" d="M64.9881 283.69L64.985 283.66L60.6158 243.103C59.9361 236.802 54.2751 232.245 47.9709 232.925C41.6765 233.604 37.1209 239.244 37.7818 245.531L37.7849 245.561L42.1543 286.12C42.8338 292.421 48.4947 296.976 54.799 296.299C61.0936 295.62 65.649 289.978 64.9881 283.69Z" fill="#FCD9C3"/>
<path fill-rule="evenodd" clip-rule="evenodd" d="M60.827 284.128L60.8239 284.098C60.8239 284.098 61.1282 248.145 61.8076 254.445L64.985 283.66L64.9881 283.69C65.649 289.978 61.0933 295.62 54.799 296.299C54.0753 296.377 53.3619 296.378 52.6608 296.321C57.875 294.786 61.4145 289.717 60.827 284.128Z" fill="#F2BCA7"/>
<path fill-rule="evenodd" clip-rule="evenodd" d="M101.638 350.205C101.638 350.205 104.16 281.319 104.161 281.327L106.028 350.08C106.191 356.413 101.185 361.681 94.8459 361.846C94.1074 361.865 93.3839 361.808 92.6806 361.691C97.9244 360.517 101.781 355.776 101.638 350.205Z" fill="#F2BCA7"/>
<path fill-rule="evenodd" clip-rule="evenodd" d="M128.598 351.733L125.38 339.172C125.021 337.796 125.06 336.347 125.494 334.993C126.795 330.935 131.142 328.875 135 330.166C135.708 330.403 136.365 330.772 136.97 331.21C138.804 332.535 140.08 334.494 140.549 336.707L143.084 347.121L142.662 347.904C139.934 352.967 133.518 354.713 128.598 351.733Z" fill="#CE4EAA"/>
<path fill-rule="evenodd" clip-rule="evenodd" d="M87.7765 359.354L87.4017 346.393C87.3537 344.973 87.7112 343.567 88.4325 342.342C90.5941 338.669 95.2871 337.614 98.7668 339.721C99.4054 340.108 99.9651 340.613 100.459 341.172C101.957 342.868 102.77 345.06 102.741 347.322L102.923 358.038L102.339 358.709C98.5632 363.049 91.9202 363.343 87.7765 359.354Z" fill="#CE4EAA"/>
<path d="M101.866 161.851C130.146 143.591 17.8538 168.853 32.3515 184.247C34.5068 186.536 43.6785 185.293 46.8851 184.164" stroke="#FFB600" stroke-width="1.71"/>
<path d="M41.9391 167.054C6.72399 171.437 110.636 118.394 111.403 139.315C111.517 142.425 103.653 147.376 100.377 148.584" stroke="#FFB600" stroke-width="1.71"/>
<path fill-rule="evenodd" clip-rule="evenodd" d="M107.433 312.464L80.6436 318.791L80.2359 303.169L106.315 301.82L107.433 312.464Z" fill="#CECECE"/>
<path fill-rule="evenodd" clip-rule="evenodd" d="M105.435 301.866L81.7279 303.092L81.3665 289.609L105.709 291.618L105.435 301.866Z" fill="#E5E5E5"/>
<path fill-rule="evenodd" clip-rule="evenodd" d="M104.161 281.327L81.1891 282.725L81.3663 289.609L104.437 291.514L104.161 281.327Z" fill="#E5E5E5"/>
<path fill-rule="evenodd" clip-rule="evenodd" d="M104.32 287.196L81.333 288.326L81.366 289.609L104.437 291.514L104.32 287.196Z" fill="#CECECE"/>
<path fill-rule="evenodd" clip-rule="evenodd" d="M80.5128 313.773L107.199 310.236L106.984 308.19L80.3264 306.627L80.5128 313.773Z" fill="#E5E5E5"/>
<path fill-rule="evenodd" clip-rule="evenodd" d="M114.874 220.143C106.75 211.791 96.4732 205.847 85.1789 202.967L78.1468 201.174L86.0208 204.183C96.3394 208.125 106.052 213.498 114.874 220.143Z" fill="#ED6464"/>
<path fill-rule="evenodd" clip-rule="evenodd" d="M100.316 216.4C91.6945 211.745 83.6176 209.485 76.9779 209.873L72.8437 210.114L78.0857 210.63C84.9552 211.307 92.4385 213.249 100.316 216.4Z" fill="#ED6464"/>
<path fill-rule="evenodd" clip-rule="evenodd" d="M104.538 301.912C103.593 301.288 102.957 300.281 102.842 299.156C102.683 297.605 102.004 295.418 99.5154 294.76L98.2262 294.406C96.9192 294.047 95.5416 294.673 94.9539 295.894C93.7346 298.425 91.1137 299.978 88.3065 299.831C87.2561 299.776 86.2163 300.065 85.3446 300.652L81.7275 303.092L104.538 301.912Z" fill="#FF1D1D"/>
</svg>
