<svg width="69" height="76" viewBox="0 0 69 76" fill="none" xmlns="http://www.w3.org/2000/svg">
<rect x="0.5" y="7.4586" width="68.0414" height="68.0414" rx="34.0207" fill="#BABABA"/>
<path d="M29.3764 10.707L47.8077 1.7799C47.9977 1.688 48.1932 1.61401 48.3887 1.5447C46.9744 1.03689 45.3902 1.10932 43.9984 1.7799L25.5671 10.707C23.7882 11.5801 22.6519 13.3925 22.6519 15.3684V48.213H26.4612V15.3684C26.4612 13.3925 27.5975 11.5801 29.3764 10.707Z" fill="white"/>
<path d="M63.5007 25.0043V20.3265C63.5007 18.828 62.6938 17.4277 61.4087 16.6535L56.632 13.8201V9.27397C56.632 7.75912 55.8906 6.35877 54.6226 5.51917L49.6154 2.15846C49.2291 1.89911 48.8163 1.69816 48.3888 1.54473C48.1933 1.61405 47.9978 1.68803 47.8077 1.77993L29.3764 10.707C27.5975 11.5801 26.4612 13.3925 26.4612 15.3684V48.213H45.8926H45.9261V38.3466H49.7354H49.747L61.3433 29.386C62.6938 28.3315 63.5007 26.7177 63.5007 25.0043" fill="#FFCC99"/>
<path d="M22.5738 59.4299V51.1118C22.5738 49.5137 23.8744 48.213 25.4726 48.213H22.6517H21.6633C20.0651 48.213 18.7637 49.5137 18.7637 51.1118V59.4299C18.7637 61.0273 20.0651 62.3287 21.6633 62.3287H25.4726C23.8744 62.3287 22.5738 61.0273 22.5738 59.4299Z" fill="white"/>
<path d="M45.8925 48.213H22.6519V15.3684C22.6519 13.3925 23.7882 11.5801 25.5671 10.7071L43.9984 1.77994C45.81 0.906858 47.9518 1.03849 49.6154 2.15847L54.6226 5.51918C55.8905 6.35877 56.632 7.75913 56.632 9.27398V13.8201V20.6396C56.632 22.4512 55.6273 24.0985 54.0127 24.9054L43.1915 30.4071C41.6759 31.1813 39.8806 31.1151 38.4312 30.2591L31.6779 26.2395C30.3273 25.449 29.5033 23.9996 29.5033 22.4349C29.5033 21.3149 29.9652 20.3102 30.6895 19.5687C31.4146 18.8444 32.4357 18.3997 33.5393 18.3997H36.5043" stroke="#231F20" stroke-width="2.09001" stroke-miterlimit="10"/>
<path d="M34.3953 38.3468H49.747L61.3432 29.3862C62.6938 28.3316 63.5006 26.7179 63.5006 25.0044V20.3267C63.5006 18.8282 62.6937 17.4278 61.4087 16.6537L56.632 13.8202" stroke="#231F20" stroke-width="2.09001" stroke-miterlimit="10"/>
<path d="M45.926 48.213V38.3466" stroke="#231F20" stroke-width="2.09001" stroke-miterlimit="10"/>
<path d="M36.5044 13.8203V22.7972" stroke="#231F20" stroke-width="2.09001" stroke-miterlimit="10"/>
<rect x="17.066" y="47.5742" width="32.8101" height="14.1618" rx="3.71557" fill="white" stroke="#231F20" stroke-width="1.85779"/>
<rect x="21.0708" y="48.5029" width="27.8763" height="12.304" rx="2.32223" fill="#66CC99"/>
</svg>
