<svg width="159" height="341" viewBox="0 0 159 341" fill="none" xmlns="http://www.w3.org/2000/svg">
<mask id="mask0_0_10593" style="mask-type:luminance" maskUnits="userSpaceOnUse" x="3" y="35" width="50" height="91">
<path fill-rule="evenodd" clip-rule="evenodd" d="M3.85352 40.3779L41.6405 35.7383L52.0404 120.438L14.2534 125.078L3.85352 40.3779Z" fill="white"/>
</mask>
<g mask="url(#mask0_0_10593)">
<path fill-rule="evenodd" clip-rule="evenodd" d="M25.0062 117.173L25.5079 117.788C31.261 123.804 40.493 123.829 46.126 117.842C51.7593 111.857 51.6589 102.129 45.9078 96.1149L31.2508 80.7929L38.3632 58.3758C40.9075 50.362 36.7741 41.6059 29.1337 38.821C21.4924 36.0366 13.2374 40.2759 10.6959 48.2909L10.696 48.2912C4.07844 72.1696 9.46853 98.1139 25.0062 117.173" fill="#EA9975"/>
</g>
<path fill-rule="evenodd" clip-rule="evenodd" d="M70.4677 140.437C97.3674 137.982 117.001 112.986 114.319 84.6024L113.208 69.6017C110.523 41.2184 86.5455 20.2034 59.6426 22.6615C32.7429 25.1171 13.1105 50.1125 15.7929 78.4964L16.9049 93.4948C19.5875 121.881 43.5691 142.895 70.4677 140.437" fill="#FBC399"/>
<path fill-rule="evenodd" clip-rule="evenodd" d="M47.0988 128.388L67.4337 418.376C69.5033 435.233 99.1726 445.463 115.144 443.501C131.116 441.54 150.048 425.343 147.979 408.487L104.935 121.287C102.865 104.428 88.2408 92.3534 72.2693 94.3145C56.2978 96.2755 45.0289 111.53 47.0988 128.388" fill="#FBC399"/>
<path fill-rule="evenodd" clip-rule="evenodd" d="M25.3904 68.0794L26.5024 83.0774C28.1617 100.63 37.9687 115.353 51.5703 123.46C55.4741 125.786 57.9915 130.054 58.3132 134.746L77.0317 407.959C79.1014 424.815 116.434 434.102 132.406 432.141C136.783 431.604 140.787 430.042 144.28 427.748C139.888 435.677 124.506 442.352 115.144 443.502C99.1728 445.463 69.5036 435.233 67.4339 418.377L48.5099 142.164C48.3001 139.103 46.5527 136.387 43.9443 134.992C29.3246 127.171 18.6433 111.884 16.9046 93.4949L15.7926 78.4965C14.0659 60.2308 21.589 43.3806 34.3343 33.0259C27.6312 42.7698 24.16 55.0641 25.3904 68.0794" fill="#EA9975"/>
<path fill-rule="evenodd" clip-rule="evenodd" d="M28.7966 68.6834C29.6122 75.3264 35.3683 80.0943 41.669 79.3389C47.9788 78.5803 52.4453 72.5687 51.6447 65.9078L46.7229 24.9685L46.719 24.937C45.9033 18.2938 40.1468 13.5238 33.8466 14.2809C27.5373 15.0373 23.07 21.0493 23.8706 27.7099L28.7924 68.6492L28.7966 68.6834Z" fill="#FBC399"/>
<path fill-rule="evenodd" clip-rule="evenodd" d="M28.7217 27.1143C28.7217 27.1143 29.6122 75.3264 28.7966 68.6834L28.7924 68.6489L23.8706 27.7099C23.0703 21.0489 27.5376 15.0373 33.8468 14.2809C34.6712 14.1821 35.4856 14.1812 36.2808 14.263C31.2924 16.0658 28.0283 21.3425 28.7217 27.1143" fill="#EA9975"/>
<mask id="mask1_0_10593" style="mask-type:luminance" maskUnits="userSpaceOnUse" x="41" y="5" width="32" height="72">
<path fill-rule="evenodd" clip-rule="evenodd" d="M41.3076 8.70557L64.2563 5.88782L72.5204 73.1935L49.5717 76.0112L41.3076 8.70557Z" fill="white"/>
</mask>
<g mask="url(#mask1_0_10593)">
<path fill-rule="evenodd" clip-rule="evenodd" d="M48.0917 63.9567C48.9073 70.5997 54.6645 75.3675 60.9663 74.612C67.2762 73.8533 71.7421 67.8394 70.9409 61.181L65.7404 17.9738L65.7367 17.9444C64.9208 11.2993 59.1636 6.53122 52.8632 7.28627C46.5522 8.04504 42.0871 14.0588 42.8883 20.7176L48.0878 63.9249L48.0917 63.9567Z" fill="#FBC399"/>
</g>
<mask id="mask2_0_10593" style="mask-type:luminance" maskUnits="userSpaceOnUse" x="41" y="7" width="21" height="58">
<path fill-rule="evenodd" clip-rule="evenodd" d="M41.3076 8.70557L55.012 7.02289L61.8708 62.8834L48.1664 64.5661L41.3076 8.70557Z" fill="white"/>
</mask>
<g mask="url(#mask2_0_10593)">
<path fill-rule="evenodd" clip-rule="evenodd" d="M47.258 20.1811C47.258 20.1811 48.9073 70.5997 48.0917 63.9567L48.0878 63.9249L42.8883 20.7176C42.0871 14.0588 46.5522 8.04534 52.8632 7.28627C53.5984 7.19843 54.326 7.19211 55.0398 7.24953C49.9245 8.97121 46.5529 14.3234 47.258 20.1811" fill="#EA9975"/>
</g>
<path fill-rule="evenodd" clip-rule="evenodd" d="M63.7086 19.7036L63.7125 19.7351L69.0811 62.588C69.916 69.2448 75.7039 73.9972 82.0101 73.2068C88.3061 72.4155 92.7374 66.3943 91.922 59.7537L91.9178 59.7196L86.5495 16.869C85.7149 10.2122 79.9265 5.45768 73.6208 6.25017C67.3245 7.0415 62.893 13.0606 63.7086 19.7036" fill="#FBC399"/>
<path fill-rule="evenodd" clip-rule="evenodd" d="M67.872 19.1924L67.8758 19.2239C67.8758 19.2239 69.916 69.2448 69.0811 62.588L63.7125 19.7351L63.7086 19.7036C62.893 13.0606 67.3245 7.0415 73.6206 6.2502C74.3447 6.15916 75.0598 6.14951 75.7641 6.19898C70.5724 7.88381 67.1471 13.2888 67.872 19.1924" fill="#EA9975"/>
<path fill-rule="evenodd" clip-rule="evenodd" d="M84.2792 23.5436L84.2831 23.575L89.6514 66.4259C90.4863 73.0824 96.2744 77.8372 102.58 77.0444C108.876 76.2531 113.308 70.2343 112.492 63.5913L112.488 63.5595L107.12 20.7069C106.285 14.0501 100.497 9.29766 94.1912 10.0881C87.8949 10.8794 83.4635 16.9003 84.2792 23.5436" fill="#FBC399"/>
<path fill-rule="evenodd" clip-rule="evenodd" d="M88.4412 23.0325L88.4451 23.064C88.4451 23.064 90.4858 73.0824 89.6512 66.4259L84.2826 23.5751L84.2787 23.5436C83.463 16.9003 87.8947 10.8794 94.1907 10.0881C94.9145 9.99676 95.6299 9.98738 96.3344 10.0389C91.1425 11.7238 87.716 17.1265 88.4412 23.0325" fill="#EA9975"/>
<path d="M88.1387 139.563L93.0923 145.734" stroke="#EA9975" stroke-width="1.81125" stroke-linecap="round"/>
<path d="M67.3245 131.606L66.9449 139.621" stroke="#EA9975" stroke-width="1.81125" stroke-linecap="round"/>
<path d="M77.9097 151.815L79.9087 159.592" stroke="#EA9975" stroke-width="1.81125" stroke-linecap="round"/>
<path d="M96.0957 126.521L98.0948 134.298" stroke="#EA9975" stroke-width="1.81125" stroke-linecap="round"/>
<path d="M97.0791 203.182L99.0782 210.959" stroke="#EA9975" stroke-width="1.81125" stroke-linecap="round"/>
<path d="M115.409 327.601L117.408 335.378" stroke="#EA9975" stroke-width="1.81125" stroke-linecap="round"/>
<path d="M100.159 275.353L102.158 283.13" stroke="#EA9975" stroke-width="1.81125" stroke-linecap="round"/>
<path d="M103.303 230.107L106.429 237.474" stroke="#EA9975" stroke-width="1.81125" stroke-linecap="round"/>
<path d="M113.344 297.686L116.47 305.052" stroke="#EA9975" stroke-width="1.81125" stroke-linecap="round"/>
<path d="M111.856 215.109L113.855 222.886" stroke="#EA9975" stroke-width="1.81125" stroke-linecap="round"/>
<path d="M124.689 317.179L128.865 323.955" stroke="#EA9975" stroke-width="1.81125" stroke-linecap="round"/>
<path d="M102.317 308.361L103.055 316.299" stroke="#EA9975" stroke-width="1.81125" stroke-linecap="round"/>
<path d="M118.91 280.662L120.909 288.439" stroke="#EA9975" stroke-width="1.81125" stroke-linecap="round"/>
<path d="M88.1784 178.136L87.5309 186.129" stroke="#EA9975" stroke-width="1.81125" stroke-linecap="round"/>
<path d="M76.0749 304.189L75.4274 312.182" stroke="#EA9975" stroke-width="1.81125" stroke-linecap="round"/>
<path d="M87.2531 219.733L86.6056 227.726" stroke="#EA9975" stroke-width="1.81125" stroke-linecap="round"/>
<path d="M81.4669 268.623L80.8195 276.616" stroke="#EA9975" stroke-width="1.81125" stroke-linecap="round"/>
<path d="M88.3229 290.281L87.6754 298.274" stroke="#EA9975" stroke-width="1.81125" stroke-linecap="round"/>
<path d="M94.856 246.818L96.5946 254.661" stroke="#EA9975" stroke-width="1.81125" stroke-linecap="round"/>
<path d="M67.7754 162.664L64.363 169.798" stroke="#EA9975" stroke-width="1.81125" stroke-linecap="round"/>
<path d="M56.3658 152.684L52.9533 159.817" stroke="#EA9975" stroke-width="1.81125" stroke-linecap="round"/>
<path d="M74.6938 200.659L72.6933 208.38" stroke="#EA9975" stroke-width="1.81125" stroke-linecap="round"/>
<path d="M72.6328 226.363L69.9989 233.863" stroke="#EA9975" stroke-width="1.81125" stroke-linecap="round"/>
<path d="M73.3462 180.27L69.9338 187.404" stroke="#EA9975" stroke-width="1.81125" stroke-linecap="round"/>
<path d="M77.9248 246.641L74.5124 253.774" stroke="#EA9975" stroke-width="1.81125" stroke-linecap="round"/>
<path d="M62.7964 253.358L59.384 260.491" stroke="#EA9975" stroke-width="1.81125" stroke-linecap="round"/>
<path d="M58.2529 183.27L52.4475 188.393" stroke="#EA9975" stroke-width="1.81125" stroke-linecap="round"/>
<path d="M97.7588 162.079L102.175 168.685" stroke="#EA9975" stroke-width="1.81125" stroke-linecap="round"/>
<path d="M102.905 188.063L107.321 194.668" stroke="#EA9975" stroke-width="1.81125" stroke-linecap="round"/>
<path d="M89.146 324.981L87.3518 332.761" stroke="#EA9975" stroke-width="1.81125" stroke-linecap="round"/>
<path d="M110.598 255.054L115.014 261.659" stroke="#EA9975" stroke-width="1.81125" stroke-linecap="round"/>
</svg>
