<svg width="24" height="24" viewBox="0 0 24 24" fill="none" xmlns="http://www.w3.org/2000/svg">
<path d="M17.0001 4C18.1061 4 18.9551 4.843 19.5841 5.75L19.7971 6.071L19.9921 6.391C20.0541 6.495 20.1131 6.599 20.1701 6.699C20.9571 8.106 21.6421 9.943 22.0951 11.758C22.5451 13.559 22.7941 15.44 22.6351 16.919C22.4751 18.404 21.7101 20 20.0001 20C18.4661 20 17.2571 19.18 16.2751 18.379L15.1651 17.448C14.2421 16.692 13.2321 16 12.0001 16C10.7681 16 9.75712 16.692 8.83612 17.448L7.72612 18.378C6.74212 19.18 5.53312 20 4.00012 20C2.28912 20 1.52412 18.404 1.36512 16.919C1.20712 15.439 1.45512 13.559 1.90512 11.757C2.35812 9.943 3.04312 8.107 3.83012 6.699L4.00812 6.39L4.20312 6.071L4.41612 5.75C5.04512 4.843 5.89412 4 7.00012 4C7.51012 4 8.01712 4.124 8.51512 4.27L9.10812 4.452C9.20612 4.482 9.30312 4.511 9.40012 4.538C10.2651 4.786 11.1501 5 12.0001 5C12.8501 5 13.7351 4.786 14.6001 4.538L15.4851 4.271C15.9831 4.124 16.4901 4 17.0001 4ZM8.50012 8C7.83708 8 7.2012 8.26339 6.73236 8.73223C6.26352 9.20107 6.00012 9.83696 6.00012 10.5C6.00012 11.163 6.26352 11.7989 6.73236 12.2678C7.2012 12.7366 7.83708 13 8.50012 13C9.16317 13 9.79905 12.7366 10.2679 12.2678C10.7367 11.7989 11.0001 11.163 11.0001 10.5C11.0001 9.83696 10.7367 9.20107 10.2679 8.73223C9.79905 8.26339 9.16317 8 8.50012 8ZM15.5001 8C15.2349 8 14.9806 8.10536 14.793 8.29289C14.6055 8.48043 14.5001 8.73478 14.5001 9V9.5H14.0001C13.7349 9.5 13.4806 9.60536 13.293 9.79289C13.1055 9.98043 13.0001 10.2348 13.0001 10.5C13.0001 10.7652 13.1055 11.0196 13.293 11.2071C13.4806 11.3946 13.7349 11.5 14.0001 11.5H14.5001V12C14.5001 12.2652 14.6055 12.5196 14.793 12.7071C14.9806 12.8946 15.2349 13 15.5001 13C15.7653 13 16.0197 12.8946 16.2072 12.7071C16.3948 12.5196 16.5001 12.2652 16.5001 12V11.5H17.0001C17.2653 11.5 17.5197 11.3946 17.7072 11.2071C17.8948 11.0196 18.0001 10.7652 18.0001 10.5C18.0001 10.2348 17.8948 9.98043 17.7072 9.79289C17.5197 9.60536 17.2653 9.5 17.0001 9.5H16.5001V9C16.5001 8.73478 16.3948 8.48043 16.2072 8.29289C16.0197 8.10536 15.7653 8 15.5001 8ZM8.50012 10C8.63273 10 8.75991 10.0527 8.85368 10.1464C8.94745 10.2402 9.00012 10.3674 9.00012 10.5C9.00012 10.6326 8.94745 10.7598 8.85368 10.8536C8.75991 10.9473 8.63273 11 8.50012 11C8.36752 11 8.24034 10.9473 8.14657 10.8536C8.0528 10.7598 8.00012 10.6326 8.00012 10.5C8.00012 10.3674 8.0528 10.2402 8.14657 10.1464C8.24034 10.0527 8.36752 10 8.50012 10Z" fill="black"/>
</svg>
