<svg width="176" height="450" viewBox="0 0 176 450" fill="none" xmlns="http://www.w3.org/2000/svg">
<mask id="mask0_4_10" style="mask-type:luminance" maskUnits="userSpaceOnUse" x="120" y="322" width="52" height="91">
<path fill-rule="evenodd" clip-rule="evenodd" d="M171.57 406.12L134.022 412.406L120.027 328.814L157.575 322.527L171.57 406.12Z" fill="white"/>
</mask>
<g mask="url(#mask0_4_10)">
<path fill-rule="evenodd" clip-rule="evenodd" d="M147.17 330.851L146.643 330.263C140.64 324.549 131.417 324.936 126.045 331.127C120.673 337.317 121.188 346.967 127.188 352.679L142.482 367.232L136.332 389.795C134.132 397.861 138.633 406.367 146.384 408.79C154.136 411.213 162.201 406.639 164.399 398.571V398.571C169.992 374.58 163.503 349.073 147.17 330.851" fill="#F2BCA7"/>
</g>
<path fill-rule="evenodd" clip-rule="evenodd" d="M100.768 309.788C74.0025 313.422 55.4549 339.102 59.3431 367.15L61.0907 381.987C64.9823 410.035 89.8284 429.822 116.597 426.185C143.363 422.551 161.909 396.872 158.021 368.823L156.272 353.989C152.383 325.938 127.532 306.151 100.768 309.788" fill="#FCD9C3"/>
<mask id="mask1_4_10" style="mask-type:luminance" maskUnits="userSpaceOnUse" x="6" y="3" width="139" height="359">
<path fill-rule="evenodd" clip-rule="evenodd" d="M144.616 348.326L64.5803 361.726L6.88158 17.1064L86.9175 3.70617L144.616 348.326Z" fill="white"/>
</mask>
<g mask="url(#mask1_4_10)">
<path fill-rule="evenodd" clip-rule="evenodd" d="M124.623 320.705L91.9611 33.8301C89.1758 17.1943 59.1032 8.36282 43.2327 11.02C27.3621 13.6771 9.13985 30.5945 11.9251 47.2303L67.1524 330.327C69.9381 346.965 85.0609 358.297 100.931 355.64C116.802 352.982 127.409 337.343 124.623 320.705" fill="#FCD9C3"/>
</g>
<mask id="mask2_4_10" style="mask-type:luminance" maskUnits="userSpaceOnUse" x="12" y="1" width="154" height="424">
<path fill-rule="evenodd" clip-rule="evenodd" d="M165.788 410.696L81.2517 424.849L12.818 16.1126L97.3539 1.95894L165.788 410.696Z" fill="white"/>
</mask>
<g mask="url(#mask2_4_10)">
<path fill-rule="evenodd" clip-rule="evenodd" d="M148.877 379.588L147.128 364.754C144.723 347.409 134.3 333.234 120.367 325.795C116.369 323.66 113.673 319.537 113.151 314.895L82.8181 44.5952C80.0328 27.9597 42.3447 20.4058 26.4741 23.0629C22.125 23.7911 18.1918 25.5193 14.8001 27.9511C18.85 19.8866 33.9309 12.5775 43.2331 11.0201C59.1036 8.36292 89.1762 17.1943 91.9615 33.8301L122.628 307.097C122.968 310.125 124.829 312.742 127.494 314.011C142.431 321.122 153.752 335.816 156.271 353.988L158.021 368.823C160.524 386.873 153.726 403.93 141.436 414.773C147.717 404.804 150.661 392.45 148.877 379.588" fill="#F2BCA7"/>
</g>
<path fill-rule="evenodd" clip-rule="evenodd" d="M145.449 379.14C144.352 372.584 138.399 368.109 132.137 369.139C125.866 370.173 121.661 376.337 122.744 382.912L129.404 423.32L129.409 423.351C130.507 429.908 136.461 434.385 142.721 433.353C148.992 432.322 153.198 426.157 152.115 419.582L145.455 379.174L145.449 379.14Z" fill="#FCD9C3"/>
<path fill-rule="evenodd" clip-rule="evenodd" d="M147.294 420.39C147.294 420.39 144.352 372.584 145.449 379.14L145.455 379.174L152.115 419.582C153.198 426.157 148.992 432.322 142.721 433.353C141.902 433.488 141.089 433.525 140.291 433.479C145.197 431.468 148.233 426.086 147.294 420.39" fill="#F2BCA7"/>
<mask id="mask3_4_10" style="mask-type:luminance" maskUnits="userSpaceOnUse" x="101" y="372" width="35" height="72">
<path fill-rule="evenodd" clip-rule="evenodd" d="M135.506 439.219L112.702 443.036L101.581 376.611L124.384 372.793L135.506 439.219Z" fill="white"/>
</mask>
<g mask="url(#mask3_4_10)">
<path fill-rule="evenodd" clip-rule="evenodd" d="M126.376 384.69C125.279 378.134 119.325 373.659 113.062 374.689C106.792 375.723 102.586 381.89 103.67 388.462L110.705 431.108L110.71 431.138C111.808 437.696 117.762 442.171 124.023 441.141C130.295 440.107 134.499 433.941 133.415 427.368L126.382 384.721L126.376 384.69Z" fill="#FCD9C3"/>
</g>
<mask id="mask4_4_10" style="mask-type:luminance" maskUnits="userSpaceOnUse" x="112" y="384" width="24" height="58">
<path fill-rule="evenodd" clip-rule="evenodd" d="M135.506 439.219L121.888 441.499L112.658 386.369L126.276 384.089L135.506 439.219Z" fill="white"/>
</mask>
<g mask="url(#mask4_4_10)">
<path fill-rule="evenodd" clip-rule="evenodd" d="M129.073 428.095C129.073 428.095 125.279 378.134 126.376 384.69L126.382 384.721L133.415 427.368C134.499 433.941 130.295 440.107 124.023 441.141C123.293 441.261 122.566 441.3 121.85 441.275C126.887 439.338 130.027 433.877 129.073 428.095" fill="#F2BCA7"/>
</g>
<path fill-rule="evenodd" clip-rule="evenodd" d="M112.661 429.301L112.656 429.27L105.469 386.982C104.351 380.414 98.3672 375.955 92.1015 377.02C85.8461 378.086 81.6758 384.259 82.773 390.812L82.7787 390.846L89.9662 433.131C91.0834 439.7 97.068 444.161 103.333 443.093C109.589 442.028 113.759 435.857 112.661 429.301" fill="#FCD9C3"/>
<path fill-rule="evenodd" clip-rule="evenodd" d="M108.524 429.994L108.519 429.963C108.519 429.963 104.351 380.414 105.469 386.982L112.656 429.27L112.661 429.301C113.759 435.857 109.589 442.028 103.333 443.093C102.614 443.216 101.9 443.257 101.194 443.24C106.309 441.337 109.5 435.82 108.524 429.994" fill="#F2BCA7"/>
<mask id="mask5_4_10" style="mask-type:luminance" maskUnits="userSpaceOnUse" x="60" y="372" width="34" height="71">
<path fill-rule="evenodd" clip-rule="evenodd" d="M93.9419 438.306L71.137 442.124L60.07 376.023L82.8748 372.205L93.9419 438.306Z" fill="white"/>
</mask>
<g mask="url(#mask5_4_10)">
<path fill-rule="evenodd" clip-rule="evenodd" d="M91.9497 426.406L91.9444 426.375L84.7571 384.09C83.6397 377.521 77.6554 373.06 71.3901 374.128C65.1347 375.193 60.9639 381.364 62.0616 387.92L62.0668 387.951L69.2548 430.238C70.372 436.807 76.3562 441.266 82.6216 440.201C88.8773 439.135 93.0473 432.963 91.9497 426.406" fill="#FCD9C3"/>
</g>
<path fill-rule="evenodd" clip-rule="evenodd" d="M87.8135 427.099L87.8082 427.068C87.8082 427.068 83.6397 377.521 84.7571 384.09L91.9444 426.375L91.9497 426.407C93.0473 432.963 88.8773 439.135 82.6216 440.201C81.9024 440.324 81.1882 440.365 80.4822 440.345C85.5968 438.442 88.7894 432.928 87.8135 427.099" fill="#F2BCA7"/>
<path d="M62.7587 303.694C29.377 307.789 127.576 255.815 128.462 276.629C128.594 279.723 121.17 284.588 118.07 285.765" stroke="#FFB600" stroke-width="1.701"/>
<path d="M65.7592 321.694C32.3775 325.789 130.577 273.815 131.463 294.629C131.595 297.723 124.17 302.588 121.07 303.765" stroke="#FFB600" stroke-width="1.701"/>
</svg>
