<svg width="154" height="455" viewBox="0 0 154 455" fill="none" xmlns="http://www.w3.org/2000/svg">
<path fill-rule="evenodd" clip-rule="evenodd" d="M125.3 283.572L124.818 282.987C119.271 277.259 110.155 277.13 104.46 282.699C98.7648 288.267 98.6485 297.423 104.194 303.149L118.326 317.737L110.806 338.752C108.117 346.264 112.003 354.552 119.486 357.261C126.97 359.969 135.215 356.074 137.902 348.56C144.966 326.164 140.219 301.686 125.3 283.572Z" fill="#F2BCA7"/>
<path fill-rule="evenodd" clip-rule="evenodd" d="M80.9255 261.155C54.3096 263.157 34.3686 286.455 36.388 313.198L37.151 327.327C39.1735 354.07 62.3833 374.122 89.0023 372.118C115.618 370.116 135.558 346.818 133.539 320.075L132.774 305.948C130.754 279.203 107.54 259.151 80.9255 261.155Z" fill="#FCD9C3"/>
<mask id="mask0_0_10955" style="mask-type:luminance" maskUnits="userSpaceOnUse" x="7" y="-30" width="115" height="339">
<path fill-rule="evenodd" clip-rule="evenodd" d="M121.653 299.966L41.9013 308.348L7.31036 -20.7634L87.0619 -29.1456L121.653 299.966Z" fill="white"/>
</mask>
<g mask="url(#mask0_0_10955)">
<path fill-rule="evenodd" clip-rule="evenodd" d="M103.733 272.763L90.0855 -0.377554C88.4157 -16.2644 59.3465 -26.2327 43.5323 -24.5706C27.7182 -22.9085 8.66423 -7.88222 10.334 8.00467L46.4663 278.782C48.1363 294.671 62.3091 306.203 78.1233 304.541C93.9374 302.879 105.403 288.652 103.733 272.763Z" fill="#FCD9C3"/>
</g>
<mask id="mask1_0_10955" style="mask-type:luminance" maskUnits="userSpaceOnUse" x="13" y="-31" width="122" height="360">
<path fill-rule="evenodd" clip-rule="evenodd" d="M134.495 319.975L50.0365 328.852L13.2251 -21.3853L97.6832 -30.2622L134.495 319.975Z" fill="white"/>
</mask>
<g mask="url(#mask1_0_10955)">
<path fill-rule="evenodd" clip-rule="evenodd" d="M99.8786 269.762C95.8286 268.02 93.6845 263.482 93.4712 259.063L80.3775 9.31595C78.7076 -6.57121 42.0497 -15.7393 26.2356 -14.0772C21.9016 -13.6217 17.9135 -12.1979 14.4134 -10.0793C18.9264 -17.4912 34.263 -23.5965 43.5321 -24.5707C59.3462 -26.2328 88.4155 -16.2645 90.0853 -0.377661L102.645 259.782C102.785 262.665 104.45 265.241 106.994 266.584C121.257 274.113 134.681 288.106 133.539 320.075C133.539 320.075 134.571 284.683 99.8786 269.762Z" fill="#F2BCA7"/>
</g>
<path fill-rule="evenodd" clip-rule="evenodd" d="M122.649 334.074C121.255 327.935 115.177 324.081 109.058 325.46C102.932 326.844 99.0855 332.956 100.468 339.111L109.436 379.049C109.438 379.058 121.199 430.821 121.2 430.829C122.596 436.97 128.674 440.825 134.791 439.445C140.918 438.062 144.764 431.95 143.382 425.795L122.656 334.103C122.654 334.095 122.652 334.085 122.649 334.074Z" fill="#FCD9C3"/>
<path fill-rule="evenodd" clip-rule="evenodd" d="M139.14 426.763C139.14 426.763 121.255 327.935 122.649 334.074C122.652 334.085 122.654 334.095 122.656 334.103L143.382 425.795C144.764 431.95 140.919 438.061 134.791 439.445C134.077 439.606 133.364 439.69 132.658 439.712C137.525 437.553 140.356 432.178 139.14 426.763Z" fill="#F2BCA7"/>
<path fill-rule="evenodd" clip-rule="evenodd" d="M84.9221 374.855L84.9189 374.825L80.5683 334.435C79.8916 328.161 74.2819 323.622 68.0375 324.293C61.8031 324.966 57.294 330.581 57.9518 336.84L57.9551 336.872L62.3055 377.26C62.9823 383.535 68.5922 388.076 74.8361 387.402C81.0708 386.73 85.5802 381.116 84.9221 374.855Z" fill="#FCD9C3"/>
<path fill-rule="evenodd" clip-rule="evenodd" d="M78.2287 375.51C78.2304 375.5 78.2298 375.521 78.2287 375.51C78.2287 375.51 80.1278 352.397 80.0536 343.742L81.5733 342.993L84.9189 374.825L84.9221 374.855C85.5802 381.116 81.0726 386.746 74.8361 387.402C71.6866 387.733 70.9482 387.01 70.2542 386.956C75.418 385.43 77.3276 381.166 78.2287 375.51Z" fill="#F2BCA7"/>
<path fill-rule="evenodd" clip-rule="evenodd" d="M102.792 343.135C102.611 336.842 97.3936 331.875 91.1239 332.033C84.8457 332.193 79.8891 337.436 80.0538 343.743L81.1251 384.663C81.1252 384.672 82.6475 437.734 82.6476 437.743C82.8281 444.038 88.0454 449.005 94.3143 448.847C100.594 448.686 105.549 443.443 105.384 437.137L102.792 343.165C102.792 343.156 102.792 343.145 102.792 343.135Z" fill="#FCD9C3"/>
<path fill-rule="evenodd" clip-rule="evenodd" d="M64.6953 371.005L64.6921 370.975L60.3417 330.587C59.665 324.313 54.0551 319.772 47.8109 320.445C41.5765 321.118 37.0672 326.732 37.7252 332.993L37.7283 333.022L42.0789 373.412C42.7557 379.687 48.3654 384.226 54.6096 383.554C60.8442 382.882 65.3534 377.266 64.6953 371.005Z" fill="#FCD9C3"/>
<path fill-rule="evenodd" clip-rule="evenodd" d="M60.5738 371.438L60.5707 371.409C60.5707 371.409 60.8521 335.608 61.5286 341.882L64.6921 370.975L64.6953 371.005C65.3534 377.266 60.844 382.882 54.6096 383.554C53.8928 383.632 53.1862 383.633 52.4917 383.576C57.6557 382.05 61.1589 377.005 60.5738 371.438Z" fill="#F2BCA7"/>
<path fill-rule="evenodd" clip-rule="evenodd" d="M101.035 437.258C101.035 437.258 103.496 368.665 103.496 368.674L105.384 437.137C105.549 443.443 100.594 448.686 94.3142 448.847C93.5827 448.865 92.866 448.808 92.1692 448.692C97.3628 447.525 101.18 442.806 101.035 437.258Z" fill="#F2BCA7"/>
<path fill-rule="evenodd" clip-rule="evenodd" d="M127.741 438.795L124.547 426.285C124.19 424.915 124.229 423.472 124.658 422.124C125.944 418.085 130.248 416.036 134.07 417.323C134.772 417.559 135.423 417.928 136.023 418.364C137.84 419.684 139.105 421.636 139.571 423.839L142.088 434.211L141.67 434.99C138.97 440.03 132.616 441.765 127.741 438.795Z" fill="#CE4EAA"/>
<path fill-rule="evenodd" clip-rule="evenodd" d="M87.3099 446.361L86.9315 433.455C86.8832 432.041 87.2365 430.641 87.9503 429.422C90.0894 425.766 94.7376 424.718 98.1853 426.818C98.8181 427.204 99.3727 427.706 99.8627 428.264C101.347 429.953 102.154 432.136 102.126 434.388L102.313 445.059L101.734 445.728C97.9968 450.047 91.4167 450.336 87.3099 446.361Z" fill="#CE4EAA"/>
<path d="M101.157 249.702C129.159 231.535 17.9438 256.628 32.3125 271.965C34.4487 274.245 43.5329 273.012 46.7088 271.89" stroke="#FFB600" stroke-width="1.701"/>
<path d="M41.7997 254.85C6.92039 259.195 109.819 206.435 110.59 227.267C110.705 230.364 102.919 235.29 99.6741 236.491" stroke="#FFB600" stroke-width="1.701"/>
</svg>
