<svg width="216" height="89" viewBox="0 0 216 89" fill="none" xmlns="http://www.w3.org/2000/svg">
<mask id="mask0_1_362" style="mask-type:luminance" maskUnits="userSpaceOnUse" x="21" y="56" width="70" height="33">
<path fill-rule="evenodd" clip-rule="evenodd" d="M21.835 88.7196L21.835 56.5874L90.0676 56.5874V88.7196H21.835Z" fill="white"/>
</mask>
<g mask="url(#mask0_1_362)">
<path fill-rule="evenodd" clip-rule="evenodd" d="M84.8415 78.8986L85.3788 78.5416C90.7138 74.3409 91.6329 66.6096 87.4305 61.2749C83.23 55.9402 75.4998 55.0237 70.1665 59.2229L56.5785 69.9254L39.4811 61.6613C33.3691 58.7056 26.0174 61.2676 23.0628 67.3817C20.1084 73.4966 22.6684 80.848 28.7815 83.8015H28.7818C47.0872 91.8013 68.2022 89.9545 84.8415 78.8986" fill="#EA9975"/>
</g>
<path fill-rule="evenodd" clip-rule="evenodd" d="M107.735 43.2075C108.407 20.4204 90.4834 1.40199 67.6961 0.729515L55.6832 0.116661C32.8962 -0.553164 13.8819 17.3716 13.2112 40.1616C12.5388 62.9486 30.4624 81.9661 53.2497 82.6386L65.2609 83.2498C88.0496 83.9222 107.064 65.9939 107.735 43.2075" fill="#FBC399"/>
<path fill-rule="evenodd" clip-rule="evenodd" d="M95.8949 61.5444L328.015 74.3374C341.594 74.3374 352.604 50.5351 352.604 36.9537C352.604 23.3723 341.594 5.84583 328.015 5.84583L95.8949 12.363C82.3141 12.363 71.3062 23.3723 71.3062 36.9537C71.3062 50.5351 82.3141 61.5444 95.8949 61.5444" fill="#FBC399"/>
<path fill-rule="evenodd" clip-rule="evenodd" d="M45.9176 73.5269L57.9286 74.138C72.0201 74.5534 84.6605 67.8523 92.4194 57.2918C94.6461 54.2608 98.2785 52.5909 102.033 52.8041L320.683 65.2256C334.262 65.2256 345.27 34.9061 345.27 21.3247C345.27 17.6027 344.42 14.0877 342.94 10.9256C348.805 15.4208 352.604 28.993 352.604 36.9537C352.604 50.5351 341.594 74.3374 328.015 74.3374L106.965 61.7795C104.516 61.6404 102.19 62.8249 100.829 64.8664C93.1968 76.3092 80.0242 83.6848 65.2608 83.2498L53.2496 82.6386C38.5854 82.2063 25.9459 74.1709 18.9702 62.4288C26.05 69.0464 35.4686 73.2189 45.9176 73.5269" fill="#EA9975"/>
<path fill-rule="evenodd" clip-rule="evenodd" d="M46.7289 70.7357C52.0803 70.7357 56.4251 66.4042 56.4396 61.0482C56.4524 55.6843 52.1168 51.3243 46.7525 51.3098L13.783 51.222H13.7576C8.40592 51.222 4.05946 55.5537 4.04642 60.9094C4.03194 66.2726 8.36779 70.6334 13.7318 70.6479L46.7014 70.7357H46.7289Z" fill="#FBC399"/>
<path fill-rule="evenodd" clip-rule="evenodd" d="M13.7318 66.5228C13.7318 66.5228 52.0803 70.7358 46.7289 70.7358H46.7011L13.7318 70.648C8.36755 70.6333 4.03194 66.2725 4.04642 60.9093C4.04835 60.2086 4.12703 59.5262 4.26943 58.8685C5.21407 63.2328 9.08363 66.51 13.7318 66.5228" fill="#EA9975"/>
<mask id="mask1_1_362" style="mask-type:luminance" maskUnits="userSpaceOnUse" x="0" y="34" width="55" height="21">
<path fill-rule="evenodd" clip-rule="evenodd" d="M0.348633 54.0854L0.348633 34.571H54.5686V54.0854H0.348633Z" fill="white"/>
</mask>
<g mask="url(#mask1_1_362)">
<path fill-rule="evenodd" clip-rule="evenodd" d="M44.8576 54.0854C50.2091 54.0854 54.5539 49.753 54.5684 44.396C54.5811 39.0321 50.2436 34.6724 44.8813 34.6586L10.0847 34.571H10.0611C4.70791 34.571 0.362895 38.9035 0.348173 44.2592C0.335381 49.6241 4.67292 53.9831 10.0355 53.9969L44.8321 54.0854H44.8576Z" fill="#FBC399"/>
</g>
<mask id="mask2_1_362" style="mask-type:luminance" maskUnits="userSpaceOnUse" x="0" y="42" width="46" height="13">
<path fill-rule="evenodd" clip-rule="evenodd" d="M0.348633 54.0854L0.348633 42.4319H45.3487V54.0854H0.348633Z" fill="white"/>
</mask>
<g mask="url(#mask2_1_362)">
<path fill-rule="evenodd" clip-rule="evenodd" d="M10.0355 50.2811C10.0355 50.2811 50.2091 54.0854 44.8576 54.0854H44.8321L10.0355 53.9969C4.67292 53.9831 0.335622 49.6241 0.348172 44.2592C0.350102 43.6343 0.415991 43.024 0.531115 42.4319C1.39901 46.8943 5.31805 50.2693 10.0355 50.2811" fill="#EA9975"/>
</g>
<path fill-rule="evenodd" clip-rule="evenodd" d="M11.2598 36.4513H11.2852L45.817 36.3617C51.1812 36.347 55.5168 31.9872 55.504 26.6231C55.4896 21.2674 51.1429 16.9359 45.7933 16.9359H45.7658L11.2359 17.0254C5.87168 17.0399 1.53438 21.3999 1.54886 26.7638C1.56335 32.1198 5.90836 36.4513 11.2598 36.4513" fill="#FBC399"/>
<path fill-rule="evenodd" clip-rule="evenodd" d="M11.2598 32.9109H11.2852C11.2852 32.9109 51.1812 36.3469 45.817 36.3616L11.2852 36.4512H11.2598C5.90836 36.4512 1.56334 32.1196 1.54886 26.7639C1.54717 26.1479 1.6092 25.5479 1.71708 24.963C2.54829 29.4855 6.50401 32.9109 11.2598 32.9109" fill="#EA9975"/>
<path fill-rule="evenodd" clip-rule="evenodd" d="M16.3118 19.6138H16.3371L50.8673 19.5242C56.2313 19.5095 60.5688 15.1497 60.5541 9.78557C60.5396 4.42987 56.1948 0.0983353 50.8434 0.0983353H50.8178L16.2862 0.187887C10.922 0.20237 6.58636 4.56239 6.59915 9.92629C6.61363 15.2822 10.9601 19.6138 16.3118 19.6138" fill="#FBC399"/>
<path fill-rule="evenodd" clip-rule="evenodd" d="M16.3118 16.0743H16.3371C16.3371 16.0743 56.2313 19.5096 50.8673 19.5241L16.3371 19.6139H16.3118C10.9601 19.6139 6.61365 15.2821 6.59916 9.92642C6.59723 9.31066 6.6595 8.71035 6.76907 8.12549C7.60028 12.6482 11.5541 16.0743 16.3118 16.0743" fill="#EA9975"/>
<path d="M108.762 28.314L114.143 24.799" stroke="#EA9975" stroke-width="1.449" stroke-linecap="round"/>
<path d="M100.419 44.9323L106.744 46.0747" stroke="#EA9975" stroke-width="1.449" stroke-linecap="round"/>
<path d="M117.489 38.1437L123.855 37.2689" stroke="#EA9975" stroke-width="1.449" stroke-linecap="round"/>
<path d="M99.187 20.3066L105.554 19.4319" stroke="#EA9975" stroke-width="1.449" stroke-linecap="round"/>
<path d="M160.123 27.3682L166.489 26.4934" stroke="#EA9975" stroke-width="1.449" stroke-linecap="round"/>
<path d="M182.097 24.9242L188.248 23.0627" stroke="#EA9975" stroke-width="1.449" stroke-linecap="round"/>
<path d="M171.027 16.2166L177.394 15.3418" stroke="#EA9975" stroke-width="1.449" stroke-linecap="round"/>
<path d="M139.378 32.2485L145.659 33.613" stroke="#EA9975" stroke-width="1.449" stroke-linecap="round"/>
<path d="M172.3 37.3025L178.58 38.667" stroke="#EA9975" stroke-width="1.449" stroke-linecap="round"/>
<path d="M210.537 47.1786L216.817 48.5431" stroke="#EA9975" stroke-width="1.449" stroke-linecap="round"/>
<path d="M194.536 33.7192L200.929 33.0694" stroke="#EA9975" stroke-width="1.449" stroke-linecap="round"/>
<path d="M125.112 47.749L130.441 51.3414" stroke="#EA9975" stroke-width="1.449" stroke-linecap="round"/>
<path d="M116.079 56.2806L121.408 59.873" stroke="#EA9975" stroke-width="1.449" stroke-linecap="round"/>
<path d="M155.938 45.8618L161.871 48.3318" stroke="#EA9975" stroke-width="1.449" stroke-linecap="round"/>
<path d="M176.137 50.2322L181.832 53.2101" stroke="#EA9975" stroke-width="1.449" stroke-linecap="round"/>
<path d="M139.627 44.8933L144.956 48.4857" stroke="#EA9975" stroke-width="1.449" stroke-linecap="round"/>
<path d="M192.746 47.8843L198.074 51.4767" stroke="#EA9975" stroke-width="1.449" stroke-linecap="round"/>
<path d="M196.602 61.249L201.931 64.8414" stroke="#EA9975" stroke-width="1.449" stroke-linecap="round"/>
<path d="M140.537 57.8459L144.037 63.2361" stroke="#EA9975" stroke-width="1.449" stroke-linecap="round"/>
<path d="M127.569 22.5715L133.242 19.5512" stroke="#EA9975" stroke-width="1.449" stroke-linecap="round"/>
<path d="M148.691 20.9331L154.364 17.9127" stroke="#EA9975" stroke-width="1.449" stroke-linecap="round"/>
<path d="M202.605 21.3794L208.278 18.359" stroke="#EA9975" stroke-width="1.449" stroke-linecap="round"/>
</svg>
