<svg width="142" height="327" viewBox="0 0 142 327" fill="none" xmlns="http://www.w3.org/2000/svg">
<path fill-rule="evenodd" clip-rule="evenodd" d="M76.9564 438.318C69.2704 430.784 20.6293 430.239 25.3632 419.561C72.2694 313.77 77.3691 106.927 69.8881 80.0723C66.073 66.3774 70.5331 51.6618 82.5673 46.1314C94.6044 40.5989 108.334 43.5779 114.55 56.1686C126.232 79.8321 170.32 303.257 113.976 430.329C108.263 443.212 94.1138 448.574 82.3732 442.301C80.3617 441.228 78.5486 439.879 76.9564 438.318" fill="#FBC399"/>
<path fill-rule="evenodd" clip-rule="evenodd" d="M95.1997 440.118C93.1871 439.042 91.374 437.693 89.7835 436.133C82.0961 428.598 33.8677 428.262 38.1886 417.375C98.0943 266.461 83.293 79.4085 82.7129 77.8873C77.7942 64.9558 83.1388 50.1477 94.6482 44.3359C90.6778 43.7842 86.5272 44.3109 82.5674 46.1313C70.5335 51.6616 64.8608 66.8573 69.8883 80.0722C70.4686 81.595 88.2842 220.101 25.3636 419.561C21.8237 430.782 69.2709 430.784 76.9568 438.318C78.549 439.879 80.3618 441.228 82.3733 442.301C89.014 445.847 96.4222 445.67 102.641 442.518C100.122 442.176 97.6089 441.404 95.1997 440.118" fill="#EA9975"/>
<path fill-rule="evenodd" clip-rule="evenodd" d="M22.2584 69.0393C18.514 65.3685 17.1858 59.3222 19.3595 54.0321L28.8418 30.9501C30.7524 26.2991 34.9692 23.3097 39.6173 23.3065L76.9268 23.3059C83.4524 23.3059 88.7462 29.1155 88.7476 36.2756C88.7493 43.4392 83.4565 49.2513 76.9279 49.2497L47.2553 49.2535L40.9128 64.6966C38.2296 71.2283 31.2292 74.1344 25.2789 71.1917C24.148 70.6328 23.136 69.8996 22.2584 69.0393" fill="#EA9975"/>
<path fill-rule="evenodd" clip-rule="evenodd" d="M63.3239 105.709C88.4387 114.971 127.703 114.249 122.756 87.4842C114.686 43.8184 94.667 5.17092 69.61 6.88528C69.61 6.88528 55.4085 23.0069 53.4326 40.4156C80.0404 74.7714 63.3239 105.709 63.3239 105.709" fill="#FBC399"/>
<path fill-rule="evenodd" clip-rule="evenodd" d="M76.2869 74.013C74.9796 64.0589 65.4038 44.3931 53.4326 40.4155C80.0407 74.7711 63.3242 105.709 63.3242 105.709C69.6804 108.053 78.7372 92.721 76.2869 74.013" fill="#EA9975"/>
<path fill-rule="evenodd" clip-rule="evenodd" d="M3.9724 73.1221C1.65206 70.8472 0.150414 67.5801 0.0307883 63.9005C-0.117306 59.2703 -0.681216 18.2927 24.8505 5.27191C48.7938 -6.93624 76.168 7.17216 77.3214 7.77843C83.2095 10.877 85.6969 18.6235 82.8739 25.0858C80.0587 31.5345 73.0209 34.2657 67.1411 31.1968C62.0076 28.5571 46.2112 22.9899 34.8097 28.8023C25.7952 33.4003 23.3768 54.2046 23.6598 62.9872C23.8898 70.1479 18.7853 76.1582 12.2628 76.4078C9.08956 76.5325 6.16477 75.2714 3.9724 73.1221" fill="#FBC399"/>
<path fill-rule="evenodd" clip-rule="evenodd" d="M11.5287 72.0966C9.20919 69.8227 7.70582 66.5556 7.58907 62.8741C7.43982 58.2457 6.87505 17.2672 32.4077 4.24736C35.9826 2.42192 39.6353 1.19769 43.2651 0.41626C37.2278 0.773838 30.931 2.17101 24.8505 5.27181C-0.681216 18.2926 -0.117306 59.2702 0.0307883 63.9004C0.150414 67.58 1.65177 70.8471 3.9724 73.122C6.16477 75.2713 9.08956 76.5324 12.2628 76.4077C13.9744 76.3418 15.5752 75.8617 17.0202 75.0873C14.9486 74.6205 13.055 73.5929 11.5287 72.0966" fill="#EA9975"/>
<path fill-rule="evenodd" clip-rule="evenodd" d="M74.6983 30.1724C70.141 27.8287 57.1809 23.1957 46.3516 26.252C55.0589 26.192 63.6156 29.3853 67.1414 31.1968C70.5105 32.9528 74.2531 32.8001 77.3694 31.1463C76.4671 30.9384 75.5699 30.6265 74.6983 30.1724" fill="#EA9975"/>
<path fill-rule="evenodd" clip-rule="evenodd" d="M76.2175 15.2373C66.7076 12.8333 34.6732 6.92838 20.0446 15.5513C12.1312 20.4883 6.36472 28.022 2.89844 37.3913C-0.219589 49.9757 -0.0438892 61.5652 0.0308769 63.9004C0.150503 67.5803 1.65186 70.8471 3.97249 73.122C6.16486 75.2712 9.08965 76.5324 12.2629 76.4077C17.4117 76.2111 21.6282 72.4021 23.0841 67.2991C22.1499 58.9189 22.905 51.8226 25.2561 46.5154C26.8647 38.8377 29.8278 31.3425 34.8098 28.8022C46.211 22.9897 62.0077 28.557 67.1412 31.1967C73.021 34.2656 80.0585 31.5344 82.8737 25.0856C83.5297 23.5799 83.8894 22.0069 83.9952 20.4368C82.1008 17.7899 79.3899 15.8448 76.2175 15.2373" fill="#EA9975"/>
<path fill-rule="evenodd" clip-rule="evenodd" d="M8.16454 93.0162C6.3851 91.2719 5.06778 88.9245 4.50848 86.1743C-1.33047 57.4573 5.83874 33.6397 23.6866 22.4613C38.1561 13.3963 68.2828 16.2067 77.1719 17.2839C83.6631 18.0691 88.3423 24.4825 87.6254 31.6009C86.9076 38.7231 81.0678 43.8592 74.5796 43.0734C59.9461 41.3164 40.7154 41.668 35.4036 44.9957C26.9228 50.3079 24.0716 63.2558 27.5816 80.5222C29.0033 87.5131 24.9907 94.4484 18.6197 96.0078C14.7543 96.955 10.9087 95.7064 8.16454 93.0162" fill="#FBC399"/>
<path fill-rule="evenodd" clip-rule="evenodd" d="M20.6934 114.445C17.1314 110.954 15.7186 105.279 17.5388 100.1C19.883 93.4241 26.7078 90.0961 32.7911 92.649C37.5859 94.6436 52.2625 99.0715 62.4807 95.6179C72.4586 92.2463 76.7579 77.5622 76.7979 77.4136C78.6219 70.5363 85.1829 66.5789 91.4515 68.583C97.7154 70.5915 101.321 77.7857 99.4992 84.6655C99.1944 85.8124 91.7862 112.863 69.4354 120.415C49.5824 127.125 26.8441 117.939 24.3158 116.87C22.9447 116.291 21.7283 115.46 20.6934 114.445" fill="#FBC399"/>
<path fill-rule="evenodd" clip-rule="evenodd" d="M16.9956 106.927C16.9956 106.927 17.131 110.953 20.6928 114.445C21.7277 115.46 22.9444 116.291 24.3152 116.87C26.8435 117.939 49.5818 127.125 69.4348 120.415C72.5704 119.358 75.3997 117.905 77.9697 116.204C58.3818 122.227 24.0831 116.994 16.9956 106.927" fill="#EA9975"/>
<path d="M122.194 125.163L126.382 132.199" stroke="#EA9975" stroke-width="1.89525" stroke-linecap="round"/>
<path d="M102.396 114.253L101.035 122.523" stroke="#EA9975" stroke-width="1.89525" stroke-linecap="round"/>
<path d="M110.483 136.574L111.526 144.9" stroke="#EA9975" stroke-width="1.89525" stroke-linecap="round"/>
<path d="M123.321 192.324L124.363 200.65" stroke="#EA9975" stroke-width="1.89525" stroke-linecap="round"/>
<path d="M137.648 234.306L138.691 242.631" stroke="#EA9975" stroke-width="1.89525" stroke-linecap="round"/>
<path d="M126.232 221.06L128.45 229.104" stroke="#EA9975" stroke-width="1.89525" stroke-linecap="round"/>
<path d="M117.35 262.439L119.568 270.482" stroke="#EA9975" stroke-width="1.89525" stroke-linecap="round"/>
<path d="M130.987 277.876L133.205 285.919" stroke="#EA9975" stroke-width="1.89525" stroke-linecap="round"/>
<path d="M136.606 206.585L137.648 214.91" stroke="#EA9975" stroke-width="1.89525" stroke-linecap="round"/>
<path d="M117.507 165.199L115.881 173.411" stroke="#EA9975" stroke-width="1.89525" stroke-linecap="round"/>
<path d="M111.485 208.249L109.86 216.461" stroke="#EA9975" stroke-width="1.89525" stroke-linecap="round"/>
<path d="M104.068 314.187L102.442 322.399" stroke="#EA9975" stroke-width="1.89525" stroke-linecap="round"/>
<path d="M103.255 286.666L101.63 294.878" stroke="#EA9975" stroke-width="1.89525" stroke-linecap="round"/>
<path d="M99.7203 258.249L98.0947 266.461" stroke="#EA9975" stroke-width="1.89525" stroke-linecap="round"/>
<path d="M85.7329 296.544L81.8687 303.799" stroke="#EA9975" stroke-width="1.89525" stroke-linecap="round"/>
<path d="M115.754 237.326L116.529 245.686" stroke="#EA9975" stroke-width="1.89525" stroke-linecap="round"/>
<path d="M117.685 294.341L118.459 302.702" stroke="#EA9975" stroke-width="1.89525" stroke-linecap="round"/>
<path d="M99.0405 146.543L94.7607 153.511" stroke="#EA9975" stroke-width="1.89525" stroke-linecap="round"/>
<path d="M88.8765 134.731L84.5967 141.699" stroke="#EA9975" stroke-width="1.89525" stroke-linecap="round"/>
<path d="M104.449 186.854L101.506 194.612" stroke="#EA9975" stroke-width="1.89525" stroke-linecap="round"/>
<path d="M89.4094 320.161L86.4668 327.919" stroke="#EA9975" stroke-width="1.89525" stroke-linecap="round"/>
<path d="M93.4312 213.879L88.2847 220.101" stroke="#EA9975" stroke-width="1.89525" stroke-linecap="round"/>
<path d="M102.442 165.523L98.1626 172.492" stroke="#EA9975" stroke-width="1.89525" stroke-linecap="round"/>
<path d="M98.8794 234.984L94.5996 241.953" stroke="#EA9975" stroke-width="1.89525" stroke-linecap="round"/>
<path d="M85.9404 268.293L81.6606 275.261" stroke="#EA9975" stroke-width="1.89525" stroke-linecap="round"/>
<path d="M90.0781 189.96L85.7983 196.928" stroke="#EA9975" stroke-width="1.89525" stroke-linecap="round"/>
<path d="M82.9573 240.028L78.6772 246.996" stroke="#EA9975" stroke-width="1.89525" stroke-linecap="round"/>
<path d="M87.0119 166.713L80.5903 171.29" stroke="#EA9975" stroke-width="1.89525" stroke-linecap="round"/>
<path d="M124.722 147.863L128.32 155.281" stroke="#EA9975" stroke-width="1.89525" stroke-linecap="round"/>
<path d="M130.987 177.377L134.586 184.795" stroke="#EA9975" stroke-width="1.89525" stroke-linecap="round"/>
<path d="M126.651 318.69L130.249 326.108" stroke="#EA9975" stroke-width="1.89525" stroke-linecap="round"/>
<path d="M132.786 254.54L136.384 261.958" stroke="#EA9975" stroke-width="1.89525" stroke-linecap="round"/>
<path d="M136.37 302.702L139.968 310.12" stroke="#EA9975" stroke-width="1.89525" stroke-linecap="round"/>
<path d="M21.2822 101.363L31.9847 104.789C33.16 105.158 34.215 105.887 35.0265 106.89H35.0268C37.7638 110.272 36.9431 115.565 33.3411 117.763L32.6677 118.174" stroke="#EA9975" stroke-width="1.89525" stroke-linecap="round"/>
<path d="M17.8011 93.2822L17.2487 84.6192C17.1874 83.2394 16.7696 81.9069 16.0441 80.7783C13.5981 76.9715 8.56921 76.631 5.71515 80.0786L5.18115 80.7231" stroke="#EA9975" stroke-width="1.89525" stroke-linecap="round"/>
</svg>
