<svg width="234" height="84" viewBox="0 0 234 84" fill="none" xmlns="http://www.w3.org/2000/svg">
<path fill-rule="evenodd" clip-rule="evenodd" d="M103.96 9.28705L103.455 9.62154C98.4369 13.5573 97.5724 20.8011 101.525 25.7994C105.476 30.7979 112.748 31.6564 117.764 27.7222L130.545 17.6946L146.628 25.4375C152.377 28.2066 159.293 25.8064 162.072 20.0779C164.851 14.3484 162.443 7.46084 156.692 4.69337C139.474 -2.80168 119.612 -1.07135 103.96 9.28705" fill="#F2BCA7"/>
<path fill-rule="evenodd" clip-rule="evenodd" d="M82.4261 42.7275C81.7936 64.0775 98.6534 81.8966 120.088 82.5264L131.387 83.1011C152.822 83.7284 170.707 66.9341 171.338 45.5813C171.971 24.2313 155.111 6.4131 133.676 5.78303L122.378 5.2104C100.942 4.58033 83.0567 21.3781 82.4261 42.7275" fill="#FCD9C3"/>
<mask id="mask0_1_404" style="mask-type:luminance" maskUnits="userSpaceOnUse" x="-148" y="13" width="265" height="65">
<path fill-rule="evenodd" clip-rule="evenodd" d="M116.692 13.5607L116.692 77.7329L-147.906 77.7329V13.5607L116.692 13.5607Z" fill="white"/>
</mask>
<g mask="url(#mask0_1_404)">
<path fill-rule="evenodd" clip-rule="evenodd" d="M93.5627 25.5469L-124.777 13.5607C-137.55 13.5607 -147.906 35.8619 -147.906 48.5868C-147.906 61.3117 -137.55 77.7329 -124.777 77.7329L93.5627 71.6267C106.337 71.6267 116.692 61.3117 116.692 48.5868C116.692 35.8619 106.337 25.5469 93.5627 25.5469" fill="#FCD9C3"/>
</g>
<mask id="mask1_1_404" style="mask-type:luminance" maskUnits="userSpaceOnUse" x="-148" y="5" width="282" height="68">
<path fill-rule="evenodd" clip-rule="evenodd" d="M133.677 5.01404V72.9736L-147.906 72.9736V5.01404L133.677 5.01404Z" fill="white"/>
</mask>
<g mask="url(#mask1_1_404)">
<path fill-rule="evenodd" clip-rule="evenodd" d="M90.8548 28.3633C89.131 31.4409 85.3434 32.7677 81.8116 32.5678L-117.88 22.0977C-130.653 22.0977 -141.007 50.5054 -141.007 63.2303C-141.007 66.7176 -140.208 70.0107 -138.816 72.9736C-144.333 68.7619 -147.906 56.0453 -147.906 48.5869C-147.906 35.862 -137.55 13.5607 -124.777 13.5607L83.1501 25.3265C85.4544 25.457 87.642 24.3473 88.9224 22.4344C96.101 11.713 108.35 2.19978 133.677 5.783C133.677 5.783 105.619 2.00076 90.8548 28.3633" fill="#F2BCA7"/>
</g>
<path fill-rule="evenodd" clip-rule="evenodd" d="M143.898 15.6207C138.9 16.2173 135.327 20.7321 135.913 25.717C136.501 30.7083 141.04 34.2808 146.05 33.6958L178.558 29.8988C178.565 29.8979 220.71 24.868 220.716 24.8673C225.716 24.2705 229.289 19.7557 228.704 14.7717C228.116 9.77953 223.577 6.20784 218.567 6.79268L143.922 15.6178C143.916 15.6187 143.907 15.6198 143.898 15.6207" fill="#FCD9C3"/>
<path fill-rule="evenodd" clip-rule="evenodd" d="M218.982 10.2495C218.982 10.2495 138.9 16.2171 143.898 15.6207C143.907 15.6196 143.915 15.6187 143.922 15.6178L218.566 6.79273C223.576 6.20766 228.115 9.77935 228.703 14.7717C228.772 15.3532 228.778 15.9283 228.737 16.4921C227.427 12.4376 223.39 9.7348 218.982 10.2495" fill="#F2BCA7"/>
<path fill-rule="evenodd" clip-rule="evenodd" d="M173.174 49.0576H173.15L140.668 49.1415C135.622 49.1553 131.544 53.2401 131.556 58.266C131.57 63.284 135.658 67.3423 140.69 67.3423H140.716L173.196 67.2584C178.242 67.2446 182.322 63.1598 182.308 58.1342C182.294 53.116 178.208 49.0576 173.174 49.0576" fill="#FCD9C3"/>
<path fill-rule="evenodd" clip-rule="evenodd" d="M173.136 54.4395C173.127 54.4372 173.144 54.4395 173.136 54.4395C173.136 54.4395 154.915 50.9946 148.026 50.3297L147.558 49.0576L173.15 49.0576H173.174C178.208 49.0576 182.308 53.116 182.308 58.1342C182.308 60.6685 181.672 61.1956 181.57 61.7434C180.788 57.5061 177.558 55.6297 173.136 54.4395" fill="#F2BCA7"/>
<path fill-rule="evenodd" clip-rule="evenodd" d="M149.443 32.1828C144.424 31.8002 140.038 35.537 139.64 40.54C139.243 45.55 142.998 49.9334 148.026 50.3298L180.655 52.9001C180.662 52.9008 222.985 56.1278 222.992 56.1285C228.012 56.5114 232.398 52.7746 232.796 47.7722C233.193 42.7613 229.438 38.3788 224.41 37.9826L149.467 32.1846C149.46 32.184 149.452 32.1835 149.443 32.1828" fill="#FCD9C3"/>
<path fill-rule="evenodd" clip-rule="evenodd" d="M168.422 64.8334H168.398L135.918 64.9173C130.872 64.9311 126.792 69.0159 126.806 74.0418C126.82 79.0597 130.907 83.1181 135.94 83.1181H135.964L168.446 83.0342C173.492 83.0204 177.57 78.9356 177.558 73.9099C177.544 68.8917 173.456 64.8334 168.422 64.8334" fill="#FCD9C3"/>
<path fill-rule="evenodd" clip-rule="evenodd" d="M168.422 68.1496H168.398C168.398 68.1496 139.953 64.931 144.999 64.9174L168.398 64.8333H168.422C173.456 64.8333 177.544 68.8919 177.558 73.9098C177.56 74.4867 177.501 75.0492 177.398 75.5972C176.616 71.3597 172.897 68.1496 168.422 68.1496" fill="#F2BCA7"/>
<path fill-rule="evenodd" clip-rule="evenodd" d="M224.143 41.454C224.143 41.454 169.804 33.7581 169.811 33.7585L224.41 37.9825C229.438 38.3789 233.193 42.7614 232.796 47.7723C232.75 48.356 232.644 48.9216 232.494 49.4665C232 45.2355 228.567 41.8025 224.143 41.454" fill="#F2BCA7"/>
<path fill-rule="evenodd" clip-rule="evenodd" d="M227.597 20.3286L217.383 21.8239C216.263 21.9933 215.119 21.842 214.083 21.3879C210.978 20.0262 209.708 16.4294 211.052 13.4953C211.298 12.9563 211.645 12.4692 212.042 12.0282C213.244 10.6923 214.902 9.84917 216.693 9.66259L225.151 8.52661L225.736 8.92442C229.518 11.4947 230.367 16.697 227.597 20.3286" fill="#CE4EAA"/>
<path fill-rule="evenodd" clip-rule="evenodd" d="M230.235 53.1386L219.94 52.3602C218.811 52.2804 217.728 51.8821 216.818 51.212V51.212C214.089 49.2037 213.645 45.4167 215.603 42.8485C215.962 42.3772 216.408 41.9778 216.893 41.6345C218.36 40.5946 220.163 40.1351 221.952 40.3454L230.453 41.0897L230.936 41.6058C234.058 44.9416 233.738 50.2027 230.235 53.1386" fill="#CE4EAA"/>
<path d="M75.01 25.6681C62.9039 1.86269 73.5623 92.4735 86.9591 82.3209C88.9508 80.8116 88.7299 73.4787 88.1033 70.8573" stroke="#FFB600" stroke-width="1.3608"/>
<path d="M74.1424 73.3388C74.6823 101.461 41.328 15.1552 57.9583 16.2837C60.4308 16.4513 63.6967 23.0602 64.3805 25.7431" stroke="#FFB600" stroke-width="1.3608"/>
</svg>
