<svg width="69" height="93" viewBox="0 0 69 93" fill="none" xmlns="http://www.w3.org/2000/svg">
<rect x="0.541504" y="24.4586" width="68.0414" height="68.0414" rx="34.0207" fill="#BABABA"/>
<path d="M23.5686 77.1524V68.8507C23.5686 67.9955 23.9403 67.2354 24.5214 66.7034H22.2937C20.696 66.7034 19.3948 68.0041 19.3948 69.6186V77.9203C19.3948 79.5341 20.696 80.8355 22.2937 80.8355H47.5443C48.2955 80.8355 48.9748 80.5404 49.4904 80.0684H26.4678C24.8698 80.0684 23.5686 78.7669 23.5686 77.1524Z" fill="white"/>
<path d="M52.9209 10.7236C53.0052 10.3902 53.1448 10.0881 53.3217 9.8178C53.1571 9.70019 53.0059 9.56623 52.8154 9.48212C52.42 9.317 52.0247 9.23444 51.6294 9.23444C50.3117 9.23444 49.0928 10.1239 48.7469 11.4915L47.3928 16.9863L47.5018 32.7135L52.9209 10.7236" fill="#FFCC99"/>
<path d="M57.9609 30.6377C58.0328 30.5186 58.1289 30.4298 58.2119 30.3239C57.7026 30.0123 57.1328 29.8402 56.5542 29.8402C56.0726 29.8402 55.5964 29.9625 55.1552 30.1743L53.6785 37.7042L57.9609 30.6377" fill="#FFCC99"/>
<path d="M29.7125 10.098C29.7125 10.0154 29.6961 9.93288 29.6961 9.86746C29.6961 9.25373 29.9071 8.6914 30.2359 8.21163C29.5509 7.73031 28.6735 7.52859 27.7953 7.75211C26.4611 8.08157 25.5222 9.26775 25.5222 10.6346C25.5222 10.7008 25.5387 10.7826 25.5387 10.8652L26.336 21.864L31.4915 34.6401L29.7125 10.098Z" fill="#FFCC99"/>
<path d="M40.8801 4.06908C40.9134 3.37668 41.1695 2.74971 41.5684 2.24113C41.0847 1.94984 40.5237 1.77304 39.9181 1.77304C38.1886 1.77304 36.7884 3.12356 36.7061 4.83701L36.3213 13.3373L39.5952 32.4493L40.8801 4.06908" fill="#FFCC99"/>
<path d="M29.2019 53.2367L20.011 21.6772C19.9285 21.3975 19.8957 21.1335 19.8957 20.8539C19.8957 20.3033 20.0574 19.769 20.3465 19.3095C19.4995 18.6825 18.3468 18.5267 17.3195 19.0353C16.3147 19.5291 15.7217 20.5502 15.7217 21.6211C15.7217 21.9015 15.7546 22.1647 15.837 22.4451L25.0281 54.0038V66.7036H44.7937V65.9357H29.2019V53.2367Z" fill="white"/>
<path d="M49.0433 54.0037L59.3874 34.5841C59.9639 33.5132 59.8816 32.1961 59.1733 31.2078C58.9071 30.8254 58.5726 30.5442 58.212 30.3238C58.129 30.4297 58.033 30.5185 57.9611 30.6377L53.6786 37.7041L55.1554 30.1743C54.616 30.4336 54.1315 30.8339 53.7871 31.4048L49.5046 38.4713L54.5448 12.7757C54.7687 11.6144 54.2521 10.4843 53.3217 9.81763C53.1448 10.0879 53.0052 10.3901 52.9209 10.7234L47.5018 32.7133L47.3928 16.9861L43.3278 33.4804L43.1301 4.9522C43.1192 3.79562 42.4926 2.79714 41.5686 2.24105C41.1697 2.74963 40.9136 3.3766 40.8803 4.06899L39.5953 32.4493L36.3215 13.3372L35.4215 33.2172L31.4684 10.1409C31.3269 9.32307 30.8612 8.6517 30.2358 8.21166C29.9071 8.69142 29.6961 9.25375 29.6961 9.86748C29.6961 9.93291 29.7125 10.0155 29.7125 10.098L31.4915 34.6401L26.3359 21.864L27.3176 35.4073L21.322 20.5501C21.1105 20.0298 20.7624 19.617 20.3465 19.3094C20.0574 19.7689 19.8958 20.3032 19.8958 20.8538C19.8958 21.1334 19.9285 21.3975 20.011 21.6771L29.2019 53.2366V65.9356H44.7937V58.9455L49.0433 54.0037Z" fill="#FFCC99"/>
<path d="M35.4216 33.2172L31.4685 10.1409C31.1719 8.4274 29.4754 7.32377 27.7953 7.75214C26.4611 8.08159 25.5222 9.26777 25.5222 10.6346C25.5222 10.7008 25.5387 10.7826 25.5387 10.8652L27.3176 35.4073" stroke="#231F20" stroke-width="2.09001" stroke-miterlimit="10"/>
<path d="M43.3277 33.4806L43.13 4.95239C43.1136 3.18987 41.6806 1.77315 39.9181 1.77315C38.1886 1.77315 36.7885 3.12367 36.7062 4.83712L35.4214 33.2174" stroke="#231F20" stroke-width="2.09001" stroke-miterlimit="10"/>
<path d="M49.5044 38.4714L54.5447 12.7758C54.8082 11.4089 54.0835 10.042 52.8152 9.48203C52.4199 9.31692 52.0245 9.23435 51.6293 9.23435C50.3115 9.23435 49.0926 10.1238 48.7468 11.4914L43.3276 33.4805" stroke="#231F20" stroke-width="2.09001" stroke-miterlimit="10"/>
<path d="M27.3176 35.4074L21.322 20.5502C20.6796 18.9691 18.8513 18.2775 17.3195 19.0353C16.3147 19.5291 15.7217 20.5502 15.7217 21.6211C15.7217 21.9015 15.7546 22.1647 15.837 22.4451L25.0281 54.0038V66.7036H44.7937V58.9456L49.0433 54.0038L59.3874 34.5841C59.9639 33.5132 59.8815 32.1962 59.1733 31.2079C58.5309 30.2849 57.5426 29.8402 56.5543 29.8402C55.4837 29.8402 54.4131 30.3675 53.7871 31.4049L49.5045 38.4713L41.7136 39.3281L37.3157 47.7941" stroke="#231F20" stroke-width="2.09001" stroke-miterlimit="10"/>
<rect x="18.2532" y="66.0178" width="32.8101" height="14.1618" rx="3.71557" fill="white" stroke="#231F20" stroke-width="1.85779"/>
<rect x="22.2581" y="66.9461" width="27.8763" height="12.304" rx="2.32223" fill="#66CC99"/>
</svg>
