<svg width="149" height="399" viewBox="0 0 149 399" fill="none" xmlns="http://www.w3.org/2000/svg">
<path fill-rule="evenodd" clip-rule="evenodd" d="M26.9177 178.526L27.3963 179.155C32.9212 185.332 42.1251 185.674 47.9516 179.918C53.7785 174.164 54.0195 164.492 48.4967 158.316L34.4209 142.583L42.299 120.547C45.1168 112.67 41.3032 103.825 33.7831 100.794C26.2619 97.764 17.8828 101.693 15.0673 109.572C7.63158 133.077 12.0949 159.049 26.9177 178.526" fill="#EA9975"/>
<path fill-rule="evenodd" clip-rule="evenodd" d="M71.4284 203.214C98.3347 201.7 118.787 177.532 117.109 149.229L116.529 134.282C114.847 105.979 91.6784 84.2669 64.7692 85.7838C37.8626 87.2986 17.411 111.465 19.0896 139.768L19.6716 154.713C21.35 183.019 44.5234 204.731 71.4284 203.214" fill="#FBC399"/>
<mask id="mask0_0_10798" style="mask-type:luminance" maskUnits="userSpaceOnUse" x="30" y="154" width="112" height="356">
<path fill-rule="evenodd" clip-rule="evenodd" d="M30.8218 161.286L111.476 154.23L141.968 502.762L61.3144 509.818L30.8218 161.286Z" fill="white"/>
</mask>
<g mask="url(#mask0_0_10798)">
<path fill-rule="evenodd" clip-rule="evenodd" d="M48.5519 190.434L58.649 479.352C60.1209 496.177 89.3433 507.366 105.336 505.967C121.329 504.568 140.775 489.121 139.303 472.296L106.466 185.367C104.994 168.54 90.8368 156.035 74.8438 157.435C58.8507 158.834 47.0798 173.607 48.5519 190.434" fill="#FBC399"/>
</g>
<mask id="mask1_0_10798" style="mask-type:luminance" maskUnits="userSpaceOnUse" x="18" y="132" width="118" height="379">
<path fill-rule="evenodd" clip-rule="evenodd" d="M18.123 139.853L103.536 132.381L135.986 503.285L50.573 510.758L18.123 139.853Z" fill="white"/>
</mask>
<g mask="url(#mask1_0_10798)">
<path fill-rule="evenodd" clip-rule="evenodd" d="M52.4041 193.692C56.4707 195.624 58.5748 200.467 58.7305 205.141L68.5841 469.329C70.056 486.154 106.953 496.669 122.946 495.27C127.329 494.886 131.376 493.472 134.939 491.312C130.282 499.042 114.711 505.147 105.337 505.967C89.3437 507.366 60.1213 496.177 58.6494 479.352L49.4752 204.174C49.3736 201.125 47.7268 198.365 45.1751 196.889C30.8728 188.612 17.5046 173.523 19.0895 139.769C19.0895 139.769 17.5692 177.142 52.4041 193.692" fill="#EA9975"/>
</g>
<path fill-rule="evenodd" clip-rule="evenodd" d="M30.2757 125.223C31.6015 131.741 37.6876 135.951 43.8853 134.631C50.0907 133.308 54.0578 126.936 52.7451 120.402L44.2268 77.999C44.2248 77.9898 33.0462 23.0295 33.0446 23.0203C31.7183 16.5002 25.6322 12.2901 19.4356 13.6097C13.2291 14.9334 9.26312 21.3045 10.5755 27.8393L30.2693 125.192C30.2712 125.2 30.2736 125.212 30.2757 125.223" fill="#FBC399"/>
<path fill-rule="evenodd" clip-rule="evenodd" d="M14.8723 26.9116C14.8723 26.9116 31.6016 131.741 30.2758 125.223C30.2737 125.212 30.2713 125.201 30.2694 125.192L10.5756 27.8392C9.26322 21.3044 13.2292 14.9333 19.4357 13.6096C20.1589 13.4556 20.881 13.3834 21.594 13.3759C16.6491 15.5468 13.7175 21.1627 14.8723 26.9116" fill="#EA9975"/>
<path fill-rule="evenodd" clip-rule="evenodd" d="M68.9262 82.984L68.929 83.0154L72.7777 125.792C73.3765 132.437 78.9804 137.359 85.2954 136.791C91.6008 136.221 96.2304 130.389 95.6504 123.761L95.6475 123.727L91.799 80.953C91.2002 74.3082 85.5961 69.3833 79.2812 69.9539C72.9758 70.5236 68.3461 76.3534 68.9262 82.984" fill="#FBC399"/>
<path fill-rule="evenodd" clip-rule="evenodd" d="M75.6947 82.4426C75.6928 82.4537 75.6937 82.4313 75.6947 82.4426C75.6947 82.4426 73.4646 106.822 73.4231 115.969L71.8782 116.726L68.9289 83.0156L68.9262 82.9842C68.3461 76.3533 72.9742 70.5059 79.2812 69.9541C82.4664 69.6754 83.2023 70.4557 83.9025 70.5291C78.667 72.0249 76.681 76.4862 75.6947 82.4426" fill="#EA9975"/>
<path fill-rule="evenodd" clip-rule="evenodd" d="M50.452 116.097C50.5495 122.751 55.7514 128.117 62.0856 128.092C68.4281 128.064 73.5042 122.635 73.423 115.968L72.8935 72.7061C72.8932 72.6971 72.0721 16.5946 72.0719 16.5856C71.9745 9.93003 66.7725 4.56384 60.4398 4.58936C54.0958 4.61706 49.0209 10.0453 49.1021 16.7125L50.4515 116.066C50.4517 116.075 50.4519 116.086 50.452 116.097" fill="#FBC399"/>
<mask id="mask2_0_10798" style="mask-type:luminance" maskUnits="userSpaceOnUse" x="88" y="73" width="30" height="70">
<path fill-rule="evenodd" clip-rule="evenodd" d="M88.2485 75.4744L111.229 73.4638L117.078 140.315L94.0973 142.326L88.2485 75.4744Z" fill="white"/>
</mask>
<g mask="url(#mask2_0_10798)">
<path fill-rule="evenodd" clip-rule="evenodd" d="M89.3014 87.5085L89.3042 87.5402L93.1527 130.314C93.7515 136.959 99.3556 141.884 105.67 141.313C111.976 140.743 116.606 134.914 116.025 128.283L116.023 128.251L112.174 85.4755C111.575 78.8306 105.971 73.9079 99.6562 74.4764C93.3508 75.0461 88.7213 80.878 89.3014 87.5085" fill="#FBC399"/>
</g>
<path fill-rule="evenodd" clip-rule="evenodd" d="M93.4695 87.1439L93.4723 87.1756C93.4723 87.1756 92.705 124.998 92.1064 118.353L89.3042 87.5402L89.3014 87.5085C88.7213 80.878 93.3511 75.0461 99.6562 74.4764C100.381 74.4108 101.095 74.4258 101.795 74.5014C96.5597 75.9972 92.9538 81.249 93.4695 87.1439" fill="#EA9975"/>
<path fill-rule="evenodd" clip-rule="evenodd" d="M53.4963 16.6822C53.4963 16.6822 50.086 89.1046 50.0861 89.0955L49.1028 16.7125C49.0215 10.0453 54.0965 4.61704 60.4402 4.58935C61.1795 4.58645 61.9022 4.66333 62.6043 4.80139C57.3439 5.91699 53.4245 10.8171 53.4963 16.6822" fill="#EA9975"/>
<path d="M25.6016 16.5705L28.2074 27.9005C28.499 29.1414 28.4494 30.4406 28.0642 31.6467C26.7662 35.7128 22.2088 37.4355 18.7038 35.1851L18.0486 34.7642" stroke="#EA9975" stroke-width="1.8" stroke-linecap="round"/>
<path d="M67.1815 10.2746L67.6937 21.8998C67.7556 23.1741 67.4717 24.4374 66.8747 25.5425C64.8623 29.2678 60.0687 30.0446 57.0293 27.1381L56.461 26.5946" stroke="#EA9975" stroke-width="1.8" stroke-linecap="round"/>
<path d="M89.2456 202.77L93.9679 209.075" stroke="#EA9975" stroke-width="1.8" stroke-linecap="round"/>
<path d="M68.7726 194.145L68.1128 202.099" stroke="#EA9975" stroke-width="1.8" stroke-linecap="round"/>
<path d="M78.6167 214.596L80.3369 222.394" stroke="#EA9975" stroke-width="1.8" stroke-linecap="round"/>
<path d="M97.6372 190.082L99.3574 197.88" stroke="#EA9975" stroke-width="1.8" stroke-linecap="round"/>
<path d="M95.9272 266.309L97.6475 274.108" stroke="#EA9975" stroke-width="1.8" stroke-linecap="round"/>
<path d="M94.5571 338.313L96.2774 346.111" stroke="#EA9975" stroke-width="1.8" stroke-linecap="round"/>
<path d="M101.187 293.285L104.046 300.714" stroke="#EA9975" stroke-width="1.8" stroke-linecap="round"/>
<path d="M110.241 278.672L111.961 286.47" stroke="#EA9975" stroke-width="1.8" stroke-linecap="round"/>
<path d="M87.932 241.11L87.0059 249.032" stroke="#EA9975" stroke-width="1.8" stroke-linecap="round"/>
<path d="M85.5487 282.421L84.6227 290.343" stroke="#EA9975" stroke-width="1.8" stroke-linecap="round"/>
<path d="M80.66 326.667L79.734 334.588" stroke="#EA9975" stroke-width="1.8" stroke-linecap="round"/>
<path d="M92.1787 309.602L93.6369 317.457" stroke="#EA9975" stroke-width="1.8" stroke-linecap="round"/>
<path d="M68.1322 225.03L64.4795 232.003" stroke="#EA9975" stroke-width="1.8" stroke-linecap="round"/>
<path d="M57.1058 214.718L53.4531 221.69" stroke="#EA9975" stroke-width="1.8" stroke-linecap="round"/>
<path d="M73.6962 263.031L71.4307 270.636" stroke="#EA9975" stroke-width="1.8" stroke-linecap="round"/>
<path d="M70.7391 288.507L67.8498 295.87" stroke="#EA9975" stroke-width="1.8" stroke-linecap="round"/>
<path d="M73.0682 242.721L69.4155 249.693" stroke="#EA9975" stroke-width="1.8" stroke-linecap="round"/>
<path d="M75.3041 308.844L71.6514 315.816" stroke="#EA9975" stroke-width="1.8" stroke-linecap="round"/>
<path d="M59.9843 314.999L56.3315 321.972" stroke="#EA9975" stroke-width="1.8" stroke-linecap="round"/>
<path d="M57.9148 245.182L51.9468 250.074" stroke="#EA9975" stroke-width="1.8" stroke-linecap="round"/>
<path d="M98.0469 225.481L102.218 232.199" stroke="#EA9975" stroke-width="1.8" stroke-linecap="round"/>
<path d="M102.266 251.483L106.438 258.2" stroke="#EA9975" stroke-width="1.8" stroke-linecap="round"/>
<path d="M110.379 312.451L114.551 319.169" stroke="#EA9975" stroke-width="1.8" stroke-linecap="round"/>
<path d="M110.797 331.87L115.519 338.175" stroke="#EA9975" stroke-width="1.8" stroke-linecap="round"/>
<path d="M111.698 346.489L113.418 354.287" stroke="#EA9975" stroke-width="1.8" stroke-linecap="round"/>
<path d="M103.603 364.294L106.059 371.878" stroke="#EA9975" stroke-width="1.8" stroke-linecap="round"/>
<path d="M88.4971 365.614L87.4073 373.511" stroke="#EA9975" stroke-width="1.8" stroke-linecap="round"/>
<path d="M78.2543 350.063L74.6016 357.036" stroke="#EA9975" stroke-width="1.8" stroke-linecap="round"/>
<path d="M107.406 385.983L103.753 392.955" stroke="#EA9975" stroke-width="1.8" stroke-linecap="round"/>
<path d="M79.5608 386.228L73.5928 391.121" stroke="#EA9975" stroke-width="1.8" stroke-linecap="round"/>
<path d="M119.693 366.527L123.865 373.245" stroke="#EA9975" stroke-width="1.8" stroke-linecap="round"/>
<path d="M123.912 392.529L128.084 399.247" stroke="#EA9975" stroke-width="1.8" stroke-linecap="round"/>
</svg>
