<svg width="69" height="94" viewBox="0 0 69 94" fill="none" xmlns="http://www.w3.org/2000/svg">
<rect x="0.582764" y="25.4587" width="68.0414" height="68.0414" rx="34.0207" fill="#BABABA"/>
<path d="M52.2421 7.47362C53.5268 8.03361 54.2681 9.4176 53.988 10.8008L48.6349 38.3579V38.3742L42.2274 34.9972C41.338 34.5197 40.2509 34.8492 39.7567 35.7223L39.1637 36.776C38.9661 37.1226 38.8508 37.5011 38.8014 37.8633L36.2977 37.9131C36.2977 37.6328 36.2648 37.3368 36.1824 37.0401L33.0858 25.2632L29.1162 5.85985C29.0668 5.64566 29.0503 5.43148 29.0503 5.2173C29.0503 3.8333 29.9397 2.58171 31.2904 2.15334C33.0694 1.59336 34.9471 2.66426 35.3753 4.47585L42.0298 30.6824L48.1407 9.45031C48.5031 8.0998 49.7384 7.22672 51.0561 7.22672C51.4515 7.22672 51.8467 7.30928 52.2421 7.47362" fill="#FFCC99"/>
<path d="M23.8123 36.5453V32.7243C23.8123 31.3075 24.7017 30.0396 26.0359 29.5614L33.5113 26.8814L33.0857 25.2629L21.0945 29.5614C19.7603 30.0396 18.8708 31.3075 18.8708 32.7243V36.5453L24.257 53.3628V66.0626H29.1984V53.3628L23.8123 36.5453" fill="white"/>
<path d="M48.2558 53.3628L52.5384 45.3252C53.6584 43.2332 52.8678 40.6139 50.7595 39.494L48.6347 38.374L42.2272 34.9969C41.3379 34.5195 40.2508 34.8489 39.7566 35.722L39.1636 36.7758C38.9659 37.1224 38.8506 37.5009 38.8012 37.8631L36.2976 37.9129C36.2976 37.6325 36.2646 37.3366 36.1822 37.0398L33.5113 26.8814L26.0359 29.5614C24.7017 30.0396 23.8123 31.3075 23.8123 32.7243V36.5453L29.1983 53.3628V66.0626H44.0227V58.3046L48.2558 53.3628" fill="#FFCC99"/>
<path d="M23.5486 77.2961V68.9617C23.5486 67.3636 24.8498 66.0629 26.4476 66.0629H24.2569H21.5062C19.9085 66.0629 18.6072 67.3636 18.6072 68.9617V77.2961C18.6072 78.8936 19.9085 80.1786 21.5062 80.1786H26.4476C24.8498 80.1786 23.5486 78.8936 23.5486 77.2961Z" fill="white"/>
<path d="M42.0295 30.6823L35.375 4.47577C34.9468 2.66418 33.0691 1.59328 31.2902 2.15327C29.9395 2.58163 29.05 3.83322 29.05 5.21722C29.05 5.43141 29.0666 5.64559 29.1159 5.85977L33.0855 25.2631" stroke="#231F20" stroke-width="2.09001" stroke-miterlimit="10"/>
<path d="M48.6346 38.3577L53.9877 10.8007C54.2678 9.41748 53.5266 8.03348 52.2418 7.47349C51.8465 7.30916 51.4512 7.22659 51.0559 7.22659C49.7381 7.22659 48.5028 8.09967 48.1404 9.45019L42.0295 30.6822" stroke="#231F20" stroke-width="2.09001" stroke-miterlimit="10"/>
<path d="M44.8957 44.4186L42.392 42.5081L39.9542 40.6303C39.0813 39.9714 38.6695 38.9013 38.8013 37.8631C38.8507 37.5009 38.9659 37.1224 39.1636 36.7758L39.7566 35.722C40.2508 34.8489 41.3379 34.5195 42.2273 34.9969L48.6347 38.374L50.7595 39.494C52.8678 40.6139 53.6584 43.2332 52.5384 45.3252L48.2558 53.3628L44.0227 58.3046V66.0626H24.257V53.3628L18.8708 36.5453V32.7243C18.8708 31.3075 19.7603 30.0396 21.0945 29.5614L33.0857 25.2629L36.1823 37.0398C36.2647 37.3366 36.2976 37.6325 36.2976 37.9129C36.2976 39.543 35.1446 41.0096 33.4645 41.3056L28.8196 42.1459C27.189 42.4427 25.5912 41.5034 25.0641 39.955L23.4993 35.4915" stroke="#231F20" stroke-width="2.09001" stroke-miterlimit="10"/>
<path d="M42.392 42.5081L35.2764 50.8098" stroke="#231F20" stroke-width="2.09001" stroke-miterlimit="10"/>
<rect x="16.7488" y="65.773" width="32.8101" height="14.1618" rx="3.71557" fill="white" stroke="#231F20" stroke-width="1.85779"/>
<rect x="20.7537" y="66.702" width="27.8763" height="12.304" rx="2.32223" fill="#66CC99"/>
</svg>
